<svg version="1.1" id="Layer_1" xmlns="http://www.w3.org/2000/svg" xmlns:xlink="http://www.w3.org/1999/xlink" x="0px" y="0px"
	 width="100%" viewBox="0 0 695 695" enable-background="new 0 0 695 695" xml:space="preserve">
<path fill="#FEFEFE" opacity="1.000000" stroke="none" 
	d="
M353.000000,696.000000 
	C235.333328,696.000000 118.166664,696.000000 1.000000,696.000000 
	C1.000000,464.333344 1.000000,232.666672 1.000000,1.000000 
	C232.666672,1.000000 464.333344,1.000000 696.000000,1.000000 
	C696.000000,232.666672 696.000000,464.333344 696.000000,696.000000 
	C581.833313,696.000000 467.666656,696.000000 353.000000,696.000000 
M196.496979,304.154175 
	C196.212387,304.345947 196.039841,304.610748 195.999832,305.000031 
	C195.999832,305.000031 195.948257,304.979919 195.491302,305.175049 
	C195.210098,305.387085 195.048752,305.667969 194.683243,306.694916 
	C193.538849,307.754547 192.394470,308.814178 191.154221,309.962555 
	C189.270889,305.039185 187.975052,300.363342 185.747787,296.183838 
	C183.422592,291.820557 180.100906,287.999725 177.395615,283.824646 
	C174.029648,278.630005 170.848907,273.315369 167.743149,268.302673 
	C147.199158,290.140228 152.752762,320.906860 173.784607,335.765564 
	C177.365952,326.439514 178.225906,316.930817 176.895645,306.937042 
	C178.062241,307.881592 179.043060,308.992218 179.076447,310.130585 
	C179.303391,317.869781 180.115646,325.706207 179.227371,333.335266 
	C178.069046,343.283600 176.385010,353.079407 178.971558,363.509094 
	C179.048508,363.667328 179.125443,363.825592 179.173126,364.689453 
	C179.374649,365.105682 179.576172,365.521912 179.707306,366.652100 
	C181.518723,370.950531 183.330139,375.248962 185.481781,380.515350 
	C185.639206,380.818970 185.796631,381.122559 185.984604,381.364868 
	C185.984604,381.364868 185.980988,381.226166 186.144958,381.620300 
	C186.144958,381.620300 186.498688,381.859283 186.571167,382.408386 
	C187.070816,383.142975 187.570465,383.877563 188.217285,385.002472 
	C188.217285,385.002472 188.602219,385.163269 188.718353,385.743652 
	C189.204483,386.329468 189.690613,386.915283 190.169220,387.769958 
	C190.169220,387.769958 190.423416,387.857849 190.512085,388.380341 
	C190.904556,388.697754 191.297028,389.015167 191.887024,389.118469 
	C191.887024,389.118469 191.652512,389.291229 191.753220,389.856476 
	C192.174576,390.213470 192.595932,390.570496 193.393143,391.725433 
	C193.596848,391.937439 193.800552,392.149475 193.934296,392.174225 
	C193.934296,392.174225 194.026382,392.227417 194.273071,392.745880 
	C194.444778,392.830414 194.616501,392.914948 194.631836,393.174042 
	C194.631836,393.174042 194.888870,393.105896 195.186508,393.727417 
	C195.378128,393.854065 195.569748,393.980713 195.908539,394.656952 
	C196.225159,394.841248 196.541779,395.025543 196.884262,395.112946 
	C196.884262,395.112946 196.787827,395.140503 197.009430,395.767456 
	C199.016861,397.428253 201.024277,399.089050 203.267609,401.086548 
	C203.267609,401.086548 203.672302,401.158844 203.922440,401.715607 
	C204.624023,402.080902 205.325623,402.446198 206.240234,403.128204 
	C206.240234,403.128204 206.618500,403.178955 206.943069,403.750885 
	C207.886215,404.278992 208.829361,404.807098 209.845306,405.140167 
	C209.845306,405.140167 209.712143,405.300232 210.075653,405.861359 
	C212.718323,406.951080 215.360977,408.040802 218.212143,409.346191 
	C218.212143,409.346191 218.497681,409.254272 218.938507,409.819336 
	C221.977203,410.642212 225.015884,411.465057 228.642105,412.680237 
	C229.107269,412.704163 229.572449,412.728088 230.658493,413.166809 
	C234.457077,413.564392 238.255646,413.961975 242.901230,414.652039 
	C245.592087,414.633423 248.282959,414.614807 251.861038,414.817444 
	C253.653961,414.615417 255.446884,414.413391 258.029938,414.447968 
	C261.994537,414.359161 265.959137,414.270325 270.097931,414.981506 
	C270.815430,416.951385 271.532928,418.921295 271.382080,421.108643 
	C257.103058,422.395569 242.824020,423.682495 229.328873,424.898773 
	C231.671997,425.436310 234.976242,426.766022 238.314514,426.857849 
	C250.544861,427.194275 262.786560,427.118835 275.164612,427.885406 
	C276.628235,431.232147 278.091858,434.578888 279.713501,438.701019 
	C280.690796,441.158875 281.893646,443.554749 282.590118,446.089783 
	C283.527740,449.502533 285.397552,450.693817 288.969360,450.490845 
	C294.588623,450.171478 300.247864,450.220123 305.873383,450.478241 
	C309.010529,450.622192 310.565338,449.614563 311.703369,446.630829 
	C315.889465,435.655701 320.365387,424.791138 325.125153,413.526550 
	C325.454865,413.107666 325.784607,412.688782 326.429291,412.423584 
	C326.707397,412.389465 326.856537,412.232544 326.949615,411.996948 
	C326.949615,411.996948 326.989227,411.921539 327.774933,411.974579 
	C333.051605,410.012146 338.294464,407.951935 343.613129,406.110840 
	C351.088837,403.523071 358.620850,401.098022 366.202240,399.588104 
	C366.202240,416.010406 366.202240,432.432709 366.202240,448.988068 
	C376.301453,448.988068 385.858551,448.988068 395.921448,448.988068 
	C395.921448,434.795807 395.921448,420.918518 395.921448,406.871033 
	C402.570862,406.871033 408.718018,407.037537 414.849304,406.797943 
	C417.737000,406.685059 419.299988,407.771606 420.828339,410.098602 
	C426.111755,418.143005 431.635986,426.029266 437.176758,434.660889 
	C440.335022,439.219177 443.493286,443.777466 446.995117,447.997559 
	C446.995117,447.997559 446.654785,448.338074 447.077118,448.991302 
	C458.231995,448.991302 469.386871,448.991302 481.224762,448.991302 
	C480.224487,447.818573 479.711853,447.217529 479.019257,445.965942 
	C475.047699,440.296112 471.076111,434.626282 466.984314,428.268158 
	C464.405365,424.676025 461.826385,421.083923 459.075958,416.849792 
	C455.807861,411.997223 452.539764,407.144653 449.415588,402.505768 
	C454.800232,398.997894 459.860199,395.701538 465.302032,393.069000 
	C465.993164,393.503143 466.631683,394.091431 467.383423,394.347992 
	C476.300842,397.390961 485.305756,400.193298 494.140503,403.457245 
	C500.177887,405.687683 505.984039,408.543884 511.893585,411.120300 
	C510.999023,409.206421 509.780304,407.873444 508.500946,406.601501 
	C498.042969,396.204407 485.791565,388.460815 472.789368,381.563568 
	C477.418335,372.298492 478.193024,362.369690 476.742554,352.416046 
	C474.356537,336.042206 465.194733,324.976562 448.967957,319.545593 
	C448.326385,319.405884 447.684784,319.266174 446.575684,318.824280 
	C446.211334,318.819794 445.847015,318.815338 445.228119,318.408722 
	C444.498444,318.310364 443.768799,318.212006 442.484589,317.835785 
	C441.874603,317.802216 441.264587,317.768646 440.262054,317.325165 
	C439.186066,317.249146 438.110046,317.173096 436.285980,316.849548 
	C434.731415,316.829132 433.176849,316.808685 430.971161,316.355743 
	C410.039490,316.279846 389.107819,316.197815 368.176086,316.167389 
	C367.705841,316.166687 367.234772,316.751678 366.273102,317.869385 
	C366.205170,335.688873 366.137238,353.508331 365.329346,371.538727 
	C362.085571,372.647278 358.841797,373.755859 354.816467,374.814941 
	C349.324097,376.594971 343.831696,378.375031 338.705688,379.415955 
	C338.779510,378.879883 338.853363,378.343811 339.357239,377.276794 
	C347.375458,357.388916 355.393646,337.501038 363.628479,317.075836 
	C353.331238,317.075836 344.027435,316.960968 334.733429,317.210571 
	C333.467407,317.244598 331.594421,318.853394 331.107727,320.148438 
	C322.006500,344.365936 313.072540,368.646332 303.514801,393.382599 
	C299.901001,394.525024 296.287201,395.667450 292.350220,396.091797 
	C283.004150,370.898285 273.687927,345.693573 264.231323,320.541626 
	C263.712250,319.161072 262.050873,317.257843 260.876617,317.225708 
	C251.110794,316.958496 241.334488,317.074188 230.888474,317.074188 
	C233.933228,324.697998 236.764374,331.747192 239.565506,338.808258 
	C247.761139,359.467743 255.944824,380.131958 263.562958,401.446716 
	C248.326492,403.344452 233.841141,401.177887 220.270264,393.672607 
	C218.664917,392.784760 216.638275,392.658722 214.980789,392.053040 
	C214.980789,392.053040 214.833038,392.209259 214.941956,391.350464 
	C215.711548,385.198181 210.561539,387.350189 207.897385,386.085358 
	C207.897385,386.085358 207.796661,386.260956 207.719040,385.688812 
	C207.393555,385.524811 207.068085,385.360840 206.894363,385.112640 
	C206.894363,385.112640 206.787994,385.249786 206.919403,384.460083 
	C207.119415,382.908661 207.319443,381.357239 207.560135,379.490295 
	C205.521408,379.490295 203.549164,379.490295 201.585281,379.401031 
	C201.585281,379.401031 201.495758,379.395691 201.735443,378.709229 
	C201.126892,378.159393 200.518341,377.609558 199.996140,377.012451 
	C199.996140,377.012451 199.932022,377.087158 200.001282,376.292389 
	C199.888077,375.479218 199.944931,374.593933 199.635544,373.863922 
	C196.299179,365.991455 191.538391,358.598358 191.501556,349.629150 
	C191.496124,348.301147 191.786896,346.971924 192.035156,344.826294 
	C191.385437,343.805328 190.170319,341.895844 188.828949,339.320801 
	C188.907990,338.878754 188.987015,338.436676 189.598053,337.521515 
	C193.406311,328.458374 197.434616,319.477448 200.873825,310.276337 
	C201.775314,307.864532 206.578247,307.439819 204.318298,303.311646 
	C204.318298,303.311646 204.579681,303.157196 205.210327,303.582031 
	C206.798157,302.378998 208.385971,301.175964 210.714279,299.956726 
	C213.085419,298.261566 215.456558,296.566406 217.976883,294.764587 
	C220.294327,300.161163 224.706284,303.700500 228.879059,303.972656 
	C233.595322,304.280304 238.311905,304.583038 243.690536,304.820374 
	C244.118378,304.928192 244.546204,305.036041 245.090027,305.786835 
	C246.074448,305.801910 247.058868,305.816986 248.704132,305.751129 
	C249.134369,305.849274 249.564621,305.947418 250.182495,306.828827 
	C255.451782,307.122253 260.720001,307.444244 265.992920,307.639526 
	C266.316559,307.651489 266.677307,306.661621 267.739044,305.935333 
	C268.482666,305.929199 269.226318,305.923065 270.328552,306.443665 
	C271.228485,306.026764 272.128448,305.609863 273.645264,304.928894 
	C274.088959,304.930786 274.532654,304.932709 275.468109,305.515869 
	C277.802673,305.834778 280.691956,307.466980 280.984589,302.938873 
	C280.984589,302.938873 280.892975,302.730652 281.567993,302.865845 
	C282.023407,302.812164 282.478851,302.758484 283.328888,303.335022 
	C283.936218,303.520172 284.661499,304.019958 285.133179,303.843140 
	C291.958374,301.285065 298.106842,297.545776 303.581604,292.753815 
	C304.322113,292.105682 304.469910,290.780396 304.923950,289.365051 
	C304.923950,289.365051 304.982758,288.964447 305.458740,289.008209 
	C305.458740,289.008209 305.935425,288.973572 306.432892,288.835632 
	C306.619110,288.557953 306.805328,288.280304 306.998779,287.998779 
	C306.998779,287.998779 307.002502,287.992096 307.727875,288.018127 
	C308.501495,287.062225 309.275085,286.106293 310.175385,284.645142 
	C310.183075,284.471710 310.190796,284.298248 310.104065,284.088623 
	C310.104065,284.088623 310.128967,284.186676 310.673431,284.053436 
	C310.830444,283.729370 310.987457,283.405273 311.053894,283.065186 
	C311.053894,283.065186 311.090118,283.149719 311.566406,283.115265 
	C311.566406,283.115265 312.033081,283.014130 312.498474,282.877655 
	C312.779907,282.703583 313.001892,282.472412 313.888275,282.070007 
	C315.954956,279.408478 318.021606,276.746948 320.752838,273.909637 
	C323.722992,269.429413 326.740173,264.978210 329.563263,260.407135 
	C329.762756,260.084076 328.532806,258.878174 327.321991,258.116180 
	C326.893311,258.150970 326.464630,258.185760 325.622314,257.588562 
	C317.148773,258.612610 308.709259,259.161804 300.493073,256.011444 
	C287.988068,251.216522 275.081238,248.728607 261.683411,250.094223 
	C255.424088,250.732224 248.914673,251.172516 243.855881,256.292084 
	C243.855881,256.292084 243.574051,256.273804 242.742279,256.093201 
	C239.501419,256.696869 235.806183,256.588470 234.697144,261.540527 
	C233.845428,262.049225 232.993698,262.557892 231.367722,263.010834 
	C230.705109,263.799500 230.042480,264.588165 229.096298,265.021576 
	C229.096298,265.021576 229.356842,265.393890 228.627106,265.190338 
	C225.154587,267.629150 221.682053,270.067963 218.587830,272.241089 
	C217.707123,270.803955 216.853653,269.411224 215.812012,267.362457 
	C215.844879,266.912628 215.877762,266.462799 216.457779,265.617096 
	C216.056488,264.398254 215.655197,263.179382 215.018341,261.345032 
	C214.972900,260.910278 214.927475,260.475494 215.374817,259.752594 
	C214.973526,259.158997 214.572220,258.565399 213.915451,257.612762 
	C213.915451,257.612762 213.916183,257.172089 214.010422,256.393585 
	C213.327469,255.268219 212.644516,254.142838 211.501709,252.698456 
	C211.311981,252.180649 211.122269,251.662827 211.015472,250.386246 
	C209.996506,245.725159 207.425095,242.461670 202.278748,241.019440 
	C202.278748,241.019440 202.059357,240.646225 202.073502,239.915527 
	C202.045990,238.941376 202.018494,237.967209 202.270248,236.893692 
	C202.182465,236.932114 202.094681,236.970535 201.288696,236.943375 
	C200.138336,236.653519 198.987961,236.363678 197.395035,235.898605 
	C197.125824,235.690109 196.983093,235.415802 197.013931,234.256577 
	C197.157120,232.370132 197.300308,230.483673 197.386658,229.345993 
	C195.656311,227.693710 194.421494,226.355164 192.992493,225.273026 
	C192.673920,225.031769 191.672729,225.691925 191.006378,225.992355 
	C191.006378,225.992355 190.947495,225.988663 190.212662,225.981995 
	C189.337097,226.622299 188.039581,227.074722 187.656738,227.934448 
	C185.674835,232.385132 183.494492,236.821976 182.219940,241.491974 
	C180.971909,246.064865 180.222626,250.909866 180.200836,255.639801 
	C180.182312,259.663574 181.510635,263.693573 182.444077,268.825897 
	C182.801437,268.923645 184.497070,269.387512 186.024460,269.981049 
	C186.024460,269.981049 186.171143,269.827393 186.045120,270.583710 
	C186.012558,276.192566 189.038879,279.363098 194.033463,280.951599 
	C194.033463,280.951599 194.180878,280.793549 194.068771,281.549408 
	C196.054474,283.026825 198.040176,284.504242 200.000473,286.001221 
	C200.000473,286.001221 200.014328,285.972748 200.201553,286.465668 
	C200.505768,286.618164 200.809982,286.770630 201.022034,286.978943 
	C201.022034,286.978943 201.077988,286.886841 201.098587,287.535919 
	C201.552689,287.813019 202.006790,288.090088 202.460892,288.367188 
	C202.568863,287.758911 202.676819,287.150604 202.807465,285.832855 
	C202.929840,284.895325 203.052216,283.957794 203.830429,282.867859 
	C204.826065,281.585938 205.821716,280.303986 206.933090,279.645477 
	C206.901825,280.873779 206.870560,282.102051 206.314590,284.189117 
	C206.238235,284.513275 206.161896,284.837433 206.020828,285.948883 
	C205.238800,288.298035 204.456757,290.647217 203.321136,293.147736 
	C203.105759,293.313843 202.980820,293.531799 202.841888,294.380249 
	C202.881439,294.572205 202.920975,294.764160 203.000000,295.000000 
	C203.000000,295.000000 202.958557,294.957520 202.438538,294.859802 
	C202.266510,294.898743 202.094482,294.937683 201.463821,295.196777 
	C201.330765,295.497467 201.197693,295.798126 201.047607,296.057068 
	C201.047607,296.057068 201.090149,296.078949 200.348831,296.138977 
	C199.558945,298.414093 198.769058,300.689240 198.000610,303.000885 
	C198.000610,303.000885 197.962921,302.981567 197.508026,303.156647 
	C197.218262,303.345154 197.042267,303.609436 197.000000,304.000000 
	C197.000000,304.000000 196.949417,303.980194 196.496979,304.154175 
z"/>
<path fill="#040404" opacity="1.000000" stroke="none" 
	d="
M449.204498,319.912506 
	C465.194733,324.976562 474.356537,336.042206 476.742554,352.416046 
	C478.193024,362.369690 477.418335,372.298492 472.416534,382.096680 
	C469.669220,385.888245 467.294708,389.146698 464.920197,392.405151 
	C459.860199,395.701538 454.800232,398.997894 449.415588,402.505768 
	C452.539764,407.144653 455.807861,411.997223 458.990784,417.473755 
	C457.284943,417.418762 455.649170,416.773407 454.048126,416.051025 
	C452.595276,415.395508 451.180237,414.656036 449.748535,413.953583 
	C449.426270,414.343140 449.104034,414.732697 448.781799,415.122284 
	C449.635193,416.358765 450.353943,417.721252 451.369141,418.806427 
	C453.732117,421.332306 456.461304,423.543884 458.625397,426.219788 
	C460.973358,429.123016 463.609070,430.111084 467.104553,428.956451 
	C471.076111,434.626282 475.047699,440.296112 478.839294,446.642151 
	C476.893890,447.543091 475.131622,447.930420 473.362427,447.965179 
	C464.460876,448.140076 455.557526,448.222931 446.654785,448.338074 
	C446.654785,448.338074 446.995117,447.997559 446.957886,447.778229 
	C449.471344,444.024475 449.953491,440.154358 447.433319,436.632263 
	C444.916962,433.115509 441.243408,432.056488 437.068542,433.975708 
	C431.635986,426.029266 426.111755,418.143005 420.828339,410.098602 
	C419.299988,407.771606 417.737000,406.685059 414.849304,406.797943 
	C408.718018,407.037537 402.570862,406.871033 395.921448,406.871033 
	C395.921448,420.918518 395.921448,434.795807 395.921448,448.988068 
	C385.858551,448.988068 376.301453,448.988068 366.202240,448.988068 
	C366.202240,432.432709 366.202240,416.010406 366.271667,398.671570 
	C366.187714,393.685883 366.034332,389.616730 365.998779,385.147430 
	C366.080688,381.786621 366.044708,378.825989 366.126587,375.496094 
	C366.186066,373.860474 366.127686,372.594147 366.069305,371.327820 
	C366.137238,353.508331 366.205170,335.688873 366.936920,317.477844 
	C388.941254,316.986969 410.281769,316.887604 431.622284,316.788239 
	C433.176849,316.808685 434.731415,316.829132 436.934082,317.249969 
	C438.606293,317.678619 439.630463,317.706818 440.654602,317.735046 
	C441.264587,317.768646 441.874603,317.802216 442.988281,318.231812 
	C444.155548,318.688843 444.819092,318.749847 445.482666,318.810852 
	C445.847015,318.815338 446.211334,318.819794 446.995483,319.225037 
	C448.011688,319.721344 448.608093,319.816925 449.204498,319.912506 
M397.958435,380.928558 
	C402.666809,380.855103 407.375153,380.781647 413.002380,380.828125 
	C417.805054,380.834473 422.750275,381.563171 427.371704,380.651154 
	C432.338867,379.670837 437.002045,377.150421 442.432770,374.935425 
	C452.082214,363.698303 448.246460,346.868988 434.408600,344.416077 
	C421.839691,342.188080 408.755676,342.865997 396.008209,342.267975 
	C396.008209,350.680817 396.008209,357.824432 395.818268,365.721863 
	C395.899384,366.490387 395.980499,367.258942 395.773468,368.878723 
	C395.868683,371.554474 395.963898,374.230255 395.756012,377.401917 
	C396.193481,378.489258 396.630951,379.576599 397.958435,380.928558 
M450.178131,430.123352 
	C450.764771,427.633179 451.351379,425.143036 451.938019,422.652863 
	C448.001160,424.166962 444.854309,426.373260 446.202484,430.297699 
	C447.044952,432.750031 449.394806,435.625946 451.691071,436.358032 
	C453.759308,437.017365 456.764740,435.203003 459.162018,434.068146 
	C459.844421,433.745117 459.846405,431.984833 460.160431,430.883636 
	C459.167542,431.032471 457.859802,430.831116 457.236786,431.391296 
	C454.681458,433.688995 452.543488,433.490112 450.178131,430.123352 
z"/>
<path fill="#25A80E" opacity="1.000000" stroke="none" 
	d="
M206.618500,403.178955 
	C206.618500,403.178955 206.240234,403.128204 206.075104,402.638550 
	C205.164093,401.818878 204.418198,401.488861 203.672302,401.158844 
	C203.672302,401.158844 203.267609,401.086548 203.114014,400.588867 
	C200.902893,398.440918 198.845367,396.790710 196.787842,395.140503 
	C196.787827,395.140503 196.884262,395.112946 196.802765,394.882843 
	C196.401291,394.470947 196.081345,394.289154 195.761383,394.107361 
	C195.569748,393.980713 195.378128,393.854065 195.023193,393.398163 
	C194.859879,393.068909 194.788208,392.999451 194.788208,392.999451 
	C194.616501,392.914948 194.444778,392.830414 194.123016,392.503540 
	C193.972961,392.261200 194.004257,392.361481 194.004257,392.361481 
	C193.800552,392.149475 193.596848,391.937439 193.186890,391.016113 
	C192.537933,389.968262 192.095215,389.629761 191.652512,389.291229 
	C191.652512,389.291229 191.887024,389.118469 191.804718,388.946259 
	C191.289429,388.468628 190.856430,388.163239 190.423416,387.857849 
	C190.423416,387.857849 190.169220,387.769958 190.144470,387.318665 
	C189.613892,386.299316 189.108047,385.731293 188.602219,385.163269 
	C188.602219,385.163269 188.217285,385.002472 188.151611,384.512695 
	C187.556854,383.301727 187.027771,382.580505 186.498688,381.859283 
	C186.498688,381.859283 186.144958,381.620300 186.053268,381.457092 
	C185.961578,381.293884 185.954056,381.426178 185.954056,381.426178 
	C185.796631,381.122559 185.639206,380.818970 185.302765,379.668518 
	C183.341721,374.527191 181.559708,370.232666 179.777679,365.938141 
	C179.576172,365.521912 179.374649,365.105682 179.330872,364.233154 
	C179.348755,363.514648 179.208908,363.252441 179.069061,362.990265 
	C176.385010,353.079407 178.069046,343.283600 179.227371,333.335266 
	C180.115646,325.706207 179.303391,317.869781 179.076447,310.130585 
	C179.043060,308.992218 178.062241,307.881592 176.895645,306.937042 
	C178.225906,316.930817 177.365952,326.439514 173.784607,335.765564 
	C152.752762,320.906860 147.199158,290.140228 167.743149,268.302673 
	C170.848907,273.315369 174.029648,278.630005 177.395615,283.824646 
	C180.100906,287.999725 183.422592,291.820557 185.747787,296.183838 
	C187.975052,300.363342 189.270889,305.039185 191.154221,309.962555 
	C192.394470,308.814178 193.538849,307.754547 195.090408,306.278564 
	C195.647812,305.568115 195.798035,305.274017 195.948273,304.979919 
	C195.948257,304.979919 195.999832,305.000031 196.240417,304.921722 
	C196.637131,304.555664 196.793259,304.267914 196.949402,303.980194 
	C196.949417,303.980194 197.000000,304.000000 197.241577,303.922089 
	C197.643066,303.556641 197.802994,303.269104 197.962921,302.981567 
	C197.962921,302.981567 198.000610,303.000885 198.333984,302.943787 
	C200.781082,301.258209 202.894821,299.629791 205.153625,298.303284 
	C205.559250,299.446594 205.819809,300.287964 205.982697,301.366516 
	C205.449905,302.121490 205.014786,302.639343 204.579681,303.157196 
	C204.579681,303.157196 204.318298,303.311646 203.994568,303.623993 
	C194.472137,313.432129 190.091873,324.994171 189.066055,337.994629 
	C188.987015,338.436676 188.907990,338.878754 188.702621,339.973816 
	C188.374084,354.022186 191.608337,366.347229 199.932022,377.087158 
	C199.932022,377.087158 199.996140,377.012451 199.982880,377.331360 
	C200.478333,378.232086 200.987045,378.813873 201.495758,379.395691 
	C201.495758,379.395691 201.585281,379.401031 201.691162,379.754822 
	C203.460709,381.822327 205.124344,383.536072 206.787994,385.249786 
	C206.787994,385.249786 206.894363,385.112640 206.885864,385.422150 
	C207.183807,385.908112 207.490234,386.084534 207.796661,386.260956 
	C207.796661,386.260956 207.897385,386.085358 207.922440,386.472839 
	C210.242676,388.643280 212.537857,390.426270 214.833038,392.209259 
	C214.833038,392.209259 214.980789,392.053040 215.042633,392.422852 
	C221.022018,395.680511 226.939560,398.568390 232.400452,401.585907 
	C229.346786,401.439697 226.749771,401.163910 224.352493,400.909302 
	C222.590729,402.014679 220.666855,403.221741 218.667877,404.475952 
	C219.004639,405.571747 219.513184,407.226410 219.636093,408.955505 
	C218.999527,409.104706 218.748611,409.179474 218.497681,409.254272 
	C218.497681,409.254272 218.212143,409.346191 217.933960,408.934143 
	C215.007904,407.448181 212.360016,406.374207 209.712143,405.300232 
	C209.712143,405.300232 209.845306,405.140167 209.756042,404.872498 
	C208.650681,404.129517 207.634583,403.654236 206.618500,403.178955 
z"/>
<path fill="#040404" opacity="1.000000" stroke="none" 
	d="
M264.133179,400.794342 
	C255.944824,380.131958 247.761139,359.467743 239.565506,338.808258 
	C236.764374,331.747192 233.933228,324.697998 230.888474,317.074188 
	C241.334488,317.074188 251.110794,316.958496 260.876617,317.225708 
	C262.050873,317.257843 263.712250,319.161072 264.231323,320.541626 
	C273.687927,345.693573 283.004150,370.898285 292.221252,396.731598 
	C283.214081,399.506195 274.335876,401.640991 265.353699,403.463287 
	C264.877533,402.365326 264.505341,401.579834 264.133179,400.794342 
z"/>
<path fill="#25A80E" opacity="1.000000" stroke="none" 
	d="
M213.916183,257.172089 
	C213.916183,257.172089 213.915451,257.612762 213.979126,258.084595 
	C214.322525,259.051208 214.602280,259.545990 214.882034,260.040741 
	C214.927475,260.475494 214.972900,260.910278 215.076965,262.000519 
	C215.393921,263.774994 215.652283,264.893982 215.910645,266.012970 
	C215.877762,266.462799 215.844879,266.912628 215.793152,268.096680 
	C215.372803,272.884399 214.971329,276.937866 214.539139,281.301453 
	C219.568390,275.902313 224.462616,270.648102 229.356842,265.393890 
	C229.356842,265.393890 229.096298,265.021576 229.535721,265.115234 
	C230.697418,264.494812 231.419693,263.780701 232.141983,263.066589 
	C232.993698,262.557892 233.845428,262.049225 235.200989,261.241302 
	C238.327911,259.385986 240.950974,257.829895 243.574051,256.273804 
	C243.574051,256.273804 243.855881,256.292084 244.317184,256.160065 
	C250.532349,254.791702 256.286224,253.555344 262.244446,252.522720 
	C263.294220,252.534378 264.139709,252.342300 265.423004,252.054108 
	C268.246185,252.017944 270.631561,252.077896 273.300293,252.406647 
	C274.897095,252.698364 276.210541,252.721313 277.677094,252.676361 
	C277.830231,252.608444 278.104309,252.801071 277.929077,253.086441 
	C277.414825,254.334076 277.075806,255.296356 276.549133,256.791260 
	C279.230682,255.382278 280.935913,254.486267 282.883209,253.499481 
	C283.436523,253.539261 283.747803,253.669846 284.043945,254.108063 
	C284.033386,254.620880 284.037964,254.826050 283.832916,255.298645 
	C282.409424,257.382507 281.195557,259.198944 279.714783,261.253174 
	C278.343292,266.624390 282.646454,265.092560 284.988739,266.344543 
	C284.995361,267.429565 284.997681,268.152893 284.800049,269.036499 
	C284.734985,269.838013 284.869934,270.479309 284.827026,271.343994 
	C284.108429,271.715881 283.567627,271.864410 283.026733,271.657288 
	C282.359833,270.507751 281.693054,269.713898 280.684814,268.857178 
	C279.238129,268.474915 278.132904,268.155579 276.967468,267.506897 
	C274.993011,267.223602 273.078796,267.269653 270.781128,267.426086 
	C269.618103,267.436707 268.838501,267.336945 267.955872,266.986755 
	C266.880310,266.934113 265.907745,267.131927 264.627258,267.487122 
	C263.861572,267.633484 263.403839,267.622437 262.729126,267.419281 
	C261.678955,267.464905 260.845764,267.702667 259.714539,268.066772 
	C258.777161,268.218567 258.137848,268.243958 257.161346,268.186157 
	C256.226440,268.352631 255.628693,268.602295 254.750336,268.999023 
	C253.850937,269.229034 253.232162,269.312012 252.311401,269.321259 
	C251.677856,269.464325 251.346268,269.681152 250.792053,270.051788 
	C250.215836,270.229340 249.862274,270.253113 249.232834,270.222656 
	C248.647400,270.353485 248.337830,270.538513 247.680008,270.878906 
	C236.649445,276.408112 225.967133,281.781952 215.017029,287.172913 
	C214.502670,287.435638 214.256104,287.681183 213.875595,288.166870 
	C213.428223,288.582520 213.114792,288.757965 212.517563,288.967285 
	C211.813339,289.565521 211.392914,290.129883 210.662994,290.822937 
	C209.602341,291.426239 208.851181,291.900879 207.977203,292.029907 
	C207.640350,289.468750 207.426315,287.253174 207.227173,284.735901 
	C207.107788,284.066223 206.973541,283.698273 206.839294,283.330353 
	C206.870560,282.102051 206.901825,280.873779 206.960358,278.959900 
	C207.754349,271.701080 206.558655,265.615417 203.174606,259.582550 
	C203.174606,267.840759 203.174606,275.430511 203.174606,283.020264 
	C203.052216,283.957794 202.929840,284.895325 202.507874,286.225677 
	C201.831528,286.707947 201.454758,286.797394 201.077988,286.886841 
	C201.077988,286.886841 201.022034,286.978943 200.989792,286.691284 
	C200.643143,286.259979 200.328735,286.116364 200.014328,285.972748 
	C200.014328,285.972748 200.000473,286.001221 199.894226,285.682434 
	C197.918945,283.840302 196.049911,282.316925 194.180878,280.793549 
	C194.180878,280.793549 194.033463,280.951599 194.044220,280.557312 
	C191.427048,276.717804 188.799103,273.272614 186.171143,269.827393 
	C186.171143,269.827393 186.024460,269.981049 186.080383,269.538055 
	C185.036057,265.281128 183.552383,261.530792 182.907410,257.641357 
	C180.974106,245.982803 185.218933,235.768692 190.947495,225.988663 
	C190.947495,225.988663 191.006378,225.992355 191.330444,226.090607 
	C193.425278,229.151123 195.196060,232.113388 196.966843,235.075668 
	C196.983093,235.415802 197.125824,235.690109 197.687820,236.303955 
	C199.340179,238.021606 200.699768,239.333923 202.059357,240.646225 
	C202.059357,240.646225 202.278748,241.019440 202.614655,241.398087 
	C205.611237,244.899490 208.271881,248.022263 210.932541,251.145020 
	C211.122269,251.662827 211.311981,252.180649 211.742432,253.197525 
	C212.627487,254.855087 213.271835,256.013580 213.916183,257.172089 
z"/>
<path fill="#040404" opacity="1.000000" stroke="none" 
	d="
M304.103546,392.913544 
	C313.072540,368.646332 322.006500,344.365936 331.107727,320.148438 
	C331.594421,318.853394 333.467407,317.244598 334.733429,317.210571 
	C344.027435,316.960968 353.331238,317.075836 363.628479,317.075836 
	C355.393646,337.501038 347.375458,357.388916 338.900208,377.297180 
	C336.910736,375.064697 335.378296,372.811768 333.313599,369.776367 
	C332.816956,371.588959 332.090027,372.989716 332.156250,374.351868 
	C332.222656,375.717560 333.080353,377.044800 333.591248,378.388885 
	C333.321991,378.540375 333.052734,378.691864 332.783447,378.843353 
	C329.966309,376.237732 327.149170,373.632080 324.332001,371.026428 
	C323.789459,371.249298 323.246887,371.472137 322.704346,371.695007 
	C323.132751,373.290710 323.170776,375.166626 324.072357,376.422729 
	C325.851135,378.900970 328.108429,381.035767 329.959045,383.517822 
	C328.991486,383.886719 328.232727,384.050354 327.008942,384.153168 
	C323.932922,384.760376 319.782928,381.835358 319.156067,387.227478 
	C319.112305,387.217010 319.181824,387.159851 318.931854,387.190430 
	C318.458252,387.459198 318.234619,387.697418 317.861694,388.042603 
	C317.712402,388.149628 317.345367,388.163818 317.087341,388.167023 
	C316.564545,388.372986 316.299744,388.575745 315.780579,388.900513 
	C315.157288,389.081360 314.788391,389.140198 314.137878,389.203430 
	C313.571899,389.435760 313.287506,389.663635 312.831940,389.995300 
	C312.660767,390.099030 312.261658,390.129547 311.935730,390.100861 
	C311.073090,390.370697 310.536346,390.669220 309.997650,390.987915 
	C309.995697,391.008057 309.961731,390.985962 309.684113,390.994080 
	C308.948242,391.270569 308.489990,391.538971 307.733521,391.989380 
	C306.324707,392.418793 305.214111,392.666168 304.103546,392.913544 
z"/>
<path fill="#2ABF04" opacity="1.000000" stroke="none" 
	d="
M283.026825,272.012939 
	C283.567627,271.864410 284.108429,271.715881 285.131256,271.277985 
	C285.408875,270.284485 285.204437,269.580383 285.000000,268.876251 
	C284.997681,268.152893 284.995361,267.429565 285.293365,266.196716 
	C287.394318,263.456604 289.194916,261.225922 291.341553,258.841003 
	C293.273651,258.675415 294.955505,258.310852 296.430115,258.710663 
	C305.277466,261.109375 314.021881,264.162415 323.056000,261.279144 
	C322.336304,264.500854 321.704590,267.328766 321.032135,270.383179 
	C320.991394,270.609711 320.685791,270.953918 320.295013,270.961517 
	C318.413544,271.065399 316.922852,271.161652 315.435303,271.257721 
	C315.694977,273.641052 315.882904,275.365967 316.041687,277.054871 
	C316.012543,277.018829 316.100037,277.049347 315.833191,277.163513 
	C315.420654,277.622406 315.274994,277.967102 315.074158,278.506622 
	C315.018951,278.701447 314.692535,278.941132 314.400146,278.988831 
	C313.718018,279.656738 313.328247,280.276886 312.957275,280.933441 
	C312.976074,280.969849 312.894897,280.958649 312.671936,281.056061 
	C312.168396,281.359344 312.015106,281.635773 311.994568,281.991394 
	C312.000000,282.000000 311.982880,281.989319 311.741882,282.099030 
	C311.363953,282.522400 311.227020,282.836060 311.090118,283.149719 
	C311.090118,283.149719 311.053894,283.065186 310.832092,283.150604 
	C310.449860,283.552887 310.289398,283.869781 310.128967,284.186676 
	C310.128967,284.186676 310.104065,284.088623 309.877014,284.153473 
	C309.454102,284.517548 309.258270,284.816772 309.054626,285.093689 
	C309.046844,285.071350 309.088318,285.101501 308.689117,285.064270 
	C305.181366,284.654449 304.789642,286.563843 304.982758,288.964447 
	C304.982758,288.964447 304.923950,289.365051 304.600220,289.625244 
	C303.892548,290.045898 303.508545,290.206390 302.964417,290.058044 
	C302.038361,290.645599 301.272522,291.541992 300.462463,292.432373 
	C300.418274,292.426392 300.363892,292.497070 300.091736,292.416595 
	C299.551147,292.577698 299.282684,292.819305 298.706329,293.214386 
	C294.626831,295.665009 290.855225,297.962128 286.909851,299.972656 
	C284.788391,300.700958 282.840698,301.715790 280.892975,302.730652 
	C280.892975,302.730652 280.984589,302.938873 280.691467,302.974304 
	C279.942596,303.017517 279.486877,303.025330 278.798553,302.759155 
	C277.224152,302.544617 275.882355,302.604004 274.540527,302.663361 
	C274.794830,303.160370 275.049164,303.657379 275.211304,304.345093 
	C275.119171,304.535797 274.976349,304.934631 274.976349,304.934631 
	C274.532654,304.932709 274.088959,304.930786 272.970093,304.986023 
	C271.549652,305.062103 270.804382,305.081055 269.774902,304.784912 
	C263.005249,304.318146 256.519806,304.166473 250.027740,303.639832 
	C251.985611,300.653015 253.791321,297.900085 255.954193,295.464355 
	C258.769531,292.293823 263.532654,290.239105 261.003448,284.275421 
	C265.603821,284.176849 269.939941,284.135712 270.643616,278.556091 
	C270.676483,278.295593 271.499268,278.175018 271.906769,277.914978 
	C274.938629,275.980225 277.958466,274.026642 281.322601,272.064514 
	C282.117676,272.037659 282.572235,272.025299 283.026825,272.012939 
z"/>
<path fill="#040404" opacity="1.000000" stroke="none" 
	d="
M324.732239,413.884949 
	C320.365387,424.791138 315.889465,435.655701 311.703369,446.630829 
	C310.565338,449.614563 309.010529,450.622192 305.873383,450.478241 
	C300.247864,450.220123 294.588623,450.171478 288.969360,450.490845 
	C285.397552,450.693817 283.527740,449.502533 282.590118,446.089783 
	C281.893646,443.554749 280.690796,441.158875 280.083496,438.331238 
	C287.501587,437.985779 289.497040,436.643127 290.294769,430.845795 
	C287.938507,431.989777 285.848877,433.004303 282.930298,434.421295 
	C285.010559,430.536591 286.497162,427.760498 288.360474,424.883850 
	C296.908783,422.235840 305.080414,419.688385 313.453186,417.129700 
	C313.654358,417.118530 313.999298,416.910309 314.258850,416.907471 
	C314.747345,416.671814 314.976318,416.439056 315.161743,416.227722 
	C315.118225,416.249146 315.199188,416.302582 315.514862,416.306763 
	C316.214447,416.142426 316.598358,415.973907 317.369324,415.786377 
	C320.081635,415.139893 322.406952,414.512421 324.732239,413.884949 
z"/>
<path fill="#43CB16" opacity="1.000000" stroke="none" 
	d="
M312.261658,390.129547 
	C312.261658,390.129547 312.660767,390.099030 313.110474,389.985474 
	C313.846619,389.647583 314.133057,389.423309 314.419464,389.199005 
	C314.788391,389.140198 315.157288,389.081360 316.039551,388.911621 
	C316.817047,388.588379 317.081207,388.376099 317.345367,388.163818 
	C317.345367,388.163818 317.712402,388.149628 318.117645,388.021393 
	C318.742523,387.648712 318.962158,387.404266 319.181824,387.159851 
	C319.181824,387.159851 319.112305,387.217010 319.528687,387.214478 
	C322.454681,386.212646 324.964294,385.213287 327.473938,384.213989 
	C328.232727,384.050354 328.991486,383.886719 330.313385,383.446472 
	C333.364105,382.164948 335.851715,381.160004 338.339325,380.155090 
	C343.831696,378.375031 349.324097,376.594971 355.615723,374.876038 
	C358.752625,374.512360 361.090302,374.087524 363.427948,373.662689 
	C363.490265,373.958038 363.552551,374.253387 363.614868,374.548706 
	C360.724121,376.287140 357.833405,378.025574 354.914001,379.844940 
	C354.885284,379.925873 354.728210,379.856476 354.412292,379.868622 
	C353.393463,380.250427 352.690552,380.620087 351.860352,381.100403 
	C351.733124,381.211121 351.396362,381.191345 351.041931,381.140869 
	C350.144379,381.454773 349.601227,381.819153 348.814880,382.425232 
	C343.755768,385.057037 338.939819,387.447144 333.740112,389.864075 
	C328.993683,391.632294 324.631073,393.373627 319.931824,395.087860 
	C319.068481,395.399933 318.541809,395.739136 317.815857,396.308838 
	C316.826843,396.730682 316.037109,396.921967 314.912750,397.089050 
	C314.060211,397.409119 313.542328,397.753387 312.843018,398.312683 
	C312.130096,398.694580 311.598633,398.861420 310.714539,399.009735 
	C309.602905,399.387817 308.843933,399.784454 308.061493,400.132080 
	C308.037994,400.083069 308.137573,400.126740 307.909180,400.151245 
	C307.378143,400.287384 307.157806,400.488983 306.816376,400.885864 
	C306.613007,400.991211 306.161682,401.069336 305.752777,401.038452 
	C300.213989,403.225433 295.084137,405.443329 289.655975,407.785553 
	C288.723358,407.995453 288.088989,408.080994 287.181610,408.161438 
	C286.617493,408.352875 286.326416,408.549438 285.784393,408.843323 
	C285.354858,408.958405 285.176300,408.976074 284.621826,408.980713 
	C282.822327,409.481812 281.398773,409.995911 279.649170,410.652771 
	C278.854126,410.850464 278.385071,410.905365 277.480469,410.955505 
	C270.443176,412.037628 263.841492,413.124512 257.239807,414.211365 
	C255.446884,414.413391 253.653961,414.615417 251.395309,414.356323 
	C249.210526,412.503357 247.491486,411.111572 245.581848,409.565460 
	C247.153717,408.465515 248.743484,406.729095 250.674408,406.169159 
	C252.801880,405.552216 255.242722,406.013306 257.547058,406.009491 
	C259.657928,406.005981 261.768768,406.008759 265.305756,406.008759 
	C263.410553,405.072968 262.984528,404.862640 262.885773,404.453979 
	C263.961212,404.095673 264.709442,403.935730 265.457642,403.775757 
	C274.335876,401.640991 283.214081,399.506195 292.382874,397.090637 
	C296.287201,395.667450 299.901001,394.525024 303.809174,393.148071 
	C305.214111,392.666168 306.324707,392.418793 308.015320,392.027954 
	C309.050812,391.584991 309.506287,391.285461 309.961731,390.985962 
	C309.961731,390.985962 309.995697,391.008057 310.315063,390.998749 
	C311.176849,390.702820 311.719269,390.416199 312.261658,390.129547 
z"/>
<path fill="#E5FAE0" opacity="1.000000" stroke="none" 
	d="
M277.027649,267.836243 
	C278.132904,268.155579 279.238129,268.474915 280.665131,269.215088 
	C279.987030,270.422760 278.987183,271.209656 277.548065,272.023163 
	C256.117004,272.674072 237.854492,279.836243 222.513199,294.843140 
	C219.883484,297.657440 222.267838,297.639862 224.157501,298.240051 
	C224.916000,298.610291 225.478378,298.759064 226.299652,299.153320 
	C232.048492,301.228516 237.538422,303.058197 243.028351,304.887878 
	C238.311905,304.583038 233.595322,304.280304 228.879059,303.972656 
	C224.706284,303.700500 220.294327,300.161163 217.976883,294.764587 
	C215.456558,296.566406 213.085419,298.261566 210.175308,299.795349 
	C209.636337,299.633972 209.298492,299.294281 209.511398,299.037170 
	C212.238953,296.475159 214.753601,294.170288 217.268234,291.865387 
	C216.930267,291.485321 216.592285,291.105225 216.254318,290.725128 
	C212.505722,293.150543 208.757141,295.575958 205.008560,298.001373 
	C202.894821,299.629791 200.781082,301.258209 198.323257,302.925507 
	C198.769058,300.689240 199.558945,298.414093 200.742645,296.431213 
	C201.548721,296.855957 201.960983,296.988464 202.373245,297.120972 
	C202.568344,296.399811 202.763458,295.678680 202.958557,294.957520 
	C202.958557,294.957520 203.000000,295.000000 203.199768,295.315063 
	C204.966370,294.545227 206.533203,293.460358 208.100037,292.375488 
	C208.851181,291.900879 209.602341,291.426239 210.942200,290.864410 
	C211.954391,290.162598 212.377884,289.548004 212.801361,288.933411 
	C213.114792,288.757965 213.428223,288.582520 214.141632,288.136841 
	C214.789337,287.629639 215.037079,287.392700 215.284821,287.155762 
	C225.967133,281.781952 236.649445,276.408112 247.954056,270.930237 
	C248.887131,270.643066 249.197922,270.459991 249.508698,270.276855 
	C249.862274,270.253113 250.215836,270.229340 251.087646,270.089539 
	C251.941711,269.780670 252.277542,269.587830 252.613373,269.395020 
	C253.232162,269.312012 253.850937,269.229034 255.077881,269.059174 
	C256.290192,268.737976 256.894348,268.503662 257.498505,268.269348 
	C258.137848,268.243958 258.777161,268.218567 260.084534,268.153320 
	C261.483765,267.946106 262.214935,267.778748 262.946136,267.611389 
	C263.403839,267.622437 263.861572,267.633484 265.013184,267.609161 
	C266.490997,267.461609 267.274963,267.349396 268.058899,267.237183 
	C268.838501,267.336945 269.618103,267.436707 271.159668,267.616882 
	C273.623627,267.743652 275.325623,267.789917 277.027649,267.836243 
z"/>
<path fill="#43CB16" opacity="1.000000" stroke="none" 
	d="
M313.999268,416.910278 
	C313.999298,416.910309 313.654358,417.118530 313.130463,416.992371 
	C308.208801,418.005432 303.817780,419.171692 299.411377,420.276550 
	C294.740997,421.447601 290.055969,422.560364 284.599457,423.887817 
	C286.525879,420.899353 287.771301,418.967285 289.158142,416.946869 
	C289.299530,416.858490 289.633057,416.847290 290.072571,416.897003 
	C293.006561,415.933746 295.501068,414.920807 298.125824,413.834015 
	C298.256073,413.760193 298.550507,413.814636 298.991364,413.867157 
	C300.921356,413.194977 302.410492,412.470245 304.081299,411.545868 
	C304.772247,411.188324 305.281555,411.030396 306.067627,410.992249 
	C307.165344,410.662109 307.986298,410.212250 308.821838,409.778992 
	C308.836487,409.795593 308.880554,409.790924 309.194550,409.841492 
	C309.985962,409.552307 310.463409,409.212555 310.975464,408.917969 
	C311.010071,408.963165 310.914673,408.901062 311.231354,408.919037 
	C312.040161,408.598755 312.532288,408.260468 313.152740,407.848175 
	C313.281097,407.774170 313.574646,407.814789 313.943298,407.848236 
	C314.841919,407.472382 315.371857,407.063110 316.153198,406.421814 
	C321.185089,404.013519 325.965546,401.837280 331.086365,399.648376 
	C333.128235,399.014404 334.829773,398.393158 336.951782,397.839966 
	C338.570099,397.200195 339.767944,396.492401 341.038208,395.677002 
	C341.110657,395.569427 341.367340,395.532013 341.774597,395.657532 
	C344.011536,396.319275 345.841248,396.855469 347.670929,397.391663 
	C347.901093,397.891479 348.131226,398.391327 348.361389,398.891174 
	C346.609314,400.308594 345.003510,401.978485 343.077057,403.095032 
	C337.786438,406.161407 332.361206,408.995514 326.989227,411.921539 
	C326.989227,411.921539 326.949615,411.996948 326.769043,411.978760 
	C326.392273,412.005219 326.234222,412.108337 326.114319,412.269897 
	C325.784607,412.688782 325.454865,413.107666 324.928711,413.705750 
	C322.406952,414.512421 320.081635,415.139893 317.190735,415.586853 
	C316.149841,415.705139 315.674530,416.003876 315.199188,416.302582 
	C315.199188,416.302582 315.118225,416.249146 314.908356,416.236389 
	C314.465424,416.452515 314.232361,416.681396 313.999268,416.910278 
z"/>
<path fill="#BFF746" opacity="1.000000" stroke="none" 
	d="
M465.111115,392.737061 
	C467.294708,389.146698 469.669220,385.888245 472.260315,382.462463 
	C485.791565,388.460815 498.042969,396.204407 508.500946,406.601501 
	C509.780304,407.873444 510.999023,409.206421 511.893585,411.120300 
	C505.984039,408.543884 500.177887,405.687683 494.140503,403.457245 
	C485.305756,400.193298 476.300842,397.390961 467.383423,394.347992 
	C466.631683,394.091431 465.993164,393.503143 465.111115,392.737061 
z"/>
<path fill="#3FB825" opacity="1.000000" stroke="none" 
	d="
M289.016724,417.035248 
	C287.771301,418.967285 286.525879,420.899353 284.599457,423.887817 
	C290.055969,422.560364 294.740997,421.447601 299.411377,420.276550 
	C303.817780,419.171692 308.208801,418.005432 312.929321,417.003540 
	C305.080414,419.688385 296.908783,422.235840 287.941956,424.851807 
	C283.105835,425.679718 279.064911,426.439117 275.023956,427.198547 
	C262.786560,427.118835 250.544861,427.194275 238.314514,426.857849 
	C234.976242,426.766022 231.671997,425.436310 229.328873,424.898773 
	C242.824020,423.682495 257.103058,422.395569 271.952637,421.078369 
	C272.718048,421.125946 272.886688,421.241943 273.008362,421.830811 
	C273.784515,423.256470 274.581390,424.247345 275.378235,425.238220 
	C275.909882,424.754333 276.441559,424.270447 276.973206,423.786560 
	C275.877777,422.949188 274.782379,422.111847 273.967285,421.067535 
	C278.493256,419.508118 282.738892,418.155640 287.316833,416.884033 
	C288.105042,416.988373 288.560883,417.011810 289.016724,417.035248 
z"/>
<path fill="#62E323" opacity="1.000000" stroke="none" 
	d="
M327.382080,411.948059 
	C332.361206,408.995514 337.786438,406.161407 343.077057,403.095032 
	C345.003510,401.978485 346.609314,400.308594 348.361389,398.891174 
	C348.131226,398.391327 347.901093,397.891479 347.670929,397.391663 
	C345.841248,396.855469 344.011536,396.319275 342.057037,395.433411 
	C349.915131,391.905060 357.898041,388.726349 365.880951,385.547607 
	C366.034332,389.616730 366.187714,393.685883 366.234924,398.179199 
	C358.620850,401.098022 351.088837,403.523071 343.613129,406.110840 
	C338.294464,407.951935 333.051605,410.012146 327.382080,411.948059 
z"/>
<path fill="#2ABF04" opacity="1.000000" stroke="none" 
	d="
M262.558533,404.652283 
	C262.984528,404.862640 263.410553,405.072968 265.305756,406.008759 
	C261.768768,406.008759 259.657928,406.005981 257.547058,406.009491 
	C255.242722,406.013306 252.801880,405.552216 250.674408,406.169159 
	C248.743484,406.729095 247.153717,408.465515 245.581848,409.565460 
	C247.491486,411.111572 249.210526,412.503357 250.951691,414.245667 
	C248.282959,414.614807 245.592087,414.633423 242.320221,414.173584 
	C237.827332,413.073059 233.915421,412.450989 229.964386,411.559814 
	C229.291504,411.169739 228.657776,411.048798 227.633438,410.934875 
	C224.835785,410.254944 222.428757,409.568024 220.021729,408.881104 
	C219.513184,407.226410 219.004639,405.571747 218.667877,404.475952 
	C220.666855,403.221741 222.590729,402.014679 224.352493,400.909302 
	C226.749771,401.163910 229.346786,401.439697 232.402451,401.610352 
	C232.861099,401.505219 232.904968,401.522400 233.057526,401.864471 
	C234.826279,402.429016 236.442505,402.651489 238.394653,402.823761 
	C239.162323,402.897064 239.594055,403.020630 240.154434,403.340271 
	C240.513351,403.766571 240.790100,403.901245 241.503937,403.947815 
	C242.932602,403.968536 243.970688,403.981781 245.199982,404.253174 
	C246.572693,404.448730 247.754227,404.386108 249.391205,404.268494 
	C254.083969,404.359772 258.321259,404.506012 262.558533,404.652283 
z"/>
<path fill="#E5FAE0" opacity="1.000000" stroke="none" 
	d="
M278.104309,252.801071 
	C278.104309,252.801071 277.830231,252.608444 277.359924,252.438065 
	C275.598694,252.224411 274.307800,252.181137 273.016907,252.137863 
	C270.631561,252.077896 268.246185,252.017944 265.055786,251.967987 
	C263.513855,252.091660 262.776978,252.205338 262.040100,252.319000 
	C256.286224,253.555344 250.532349,254.791702 244.389771,256.038940 
	C248.914673,251.172516 255.424088,250.732224 261.683411,250.094223 
	C275.081238,248.728607 287.988068,251.216522 300.493073,256.011444 
	C308.709259,259.161804 317.148773,258.612610 325.573090,258.167908 
	C320.778687,259.176331 315.929016,260.431183 311.311981,259.847137 
	C303.782959,258.894745 296.405701,256.742157 288.755463,254.955322 
	C288.217957,254.794647 287.889435,254.774643 287.285583,254.491425 
	C286.026550,254.085617 285.042816,253.943024 284.059052,253.800415 
	C283.747803,253.669846 283.436523,253.539261 282.565674,253.262177 
	C280.705505,253.010803 279.404907,252.905930 278.104309,252.801071 
z"/>
<path fill="#121612" opacity="1.000000" stroke="none" 
	d="
M431.296722,316.571991 
	C410.281769,316.887604 388.941254,316.986969 367.182404,317.074890 
	C367.234772,316.751678 367.705841,316.166687 368.176086,316.167389 
	C389.107819,316.197815 410.039490,316.279846 431.296722,316.571991 
z"/>
<path fill="#040404" opacity="1.000000" stroke="none" 
	d="
M273.029053,421.396057 
	C272.886688,421.241943 272.718048,421.125946 272.386780,420.969666 
	C271.532928,418.921295 270.815430,416.951385 270.148682,414.303375 
	C272.771637,412.736938 275.343842,411.848602 277.916046,410.960266 
	C278.385071,410.905365 278.854126,410.850464 279.993530,410.720886 
	C282.039703,410.394226 283.415527,410.142212 285.179810,409.985840 
	C286.040375,412.322021 286.512451,414.562561 286.984497,416.803131 
	C282.738892,418.155640 278.493256,419.508118 273.797516,421.059448 
	C273.347382,421.258331 273.029053,421.396057 273.029053,421.396057 
z"/>
<path fill="#121612" opacity="1.000000" stroke="none" 
	d="
M275.094299,427.541992 
	C279.064911,426.439117 283.105835,425.679718 287.565277,424.952362 
	C286.497162,427.760498 285.010559,430.536591 282.930298,434.421295 
	C285.848877,433.004303 287.938507,431.989777 290.294769,430.845795 
	C289.497040,436.643127 287.501587,437.985779 280.004456,437.943573 
	C278.091858,434.578888 276.628235,431.232147 275.094299,427.541992 
z"/>
<path fill="#E5FAE0" opacity="1.000000" stroke="none" 
	d="
M262.885773,404.453979 
	C258.321259,404.506012 254.083969,404.359772 249.024109,404.104584 
	C247.137299,403.995422 246.073029,403.995209 245.008774,403.995026 
	C243.970688,403.981781 242.932602,403.968536 241.408539,403.705353 
	C240.623627,403.351654 240.324707,403.247894 240.025787,403.144165 
	C239.594055,403.020630 239.162323,402.897064 238.094223,402.589478 
	C235.940216,402.111115 234.422592,401.816742 232.904968,401.522400 
	C232.904968,401.522400 232.861099,401.505219 232.859100,401.480774 
	C226.939560,398.568390 221.022018,395.680511 214.955688,392.486084 
	C216.638275,392.658722 218.664917,392.784760 220.270264,393.672607 
	C233.841141,401.177887 248.326492,403.344452 263.848083,401.120544 
	C264.505341,401.579834 264.877533,402.365326 265.353699,403.463287 
	C264.709442,403.935730 263.961212,404.095673 262.885773,404.453979 
z"/>
<path fill="#E5FAE0" opacity="1.000000" stroke="none" 
	d="
M190.580078,225.985321 
	C185.218933,235.768692 180.974106,245.982803 182.907410,257.641357 
	C183.552383,261.530792 185.036057,265.281128 186.164520,269.473206 
	C184.497070,269.387512 182.801437,268.923645 182.444077,268.825897 
	C181.510635,263.693573 180.182312,259.663574 180.200836,255.639801 
	C180.222626,250.909866 180.971909,246.064865 182.219940,241.491974 
	C183.494492,236.821976 185.674835,232.385132 187.656738,227.934448 
	C188.039581,227.074722 189.337097,226.622299 190.580078,225.985321 
z"/>
<path fill="#121612" opacity="1.000000" stroke="none" 
	d="
M467.044434,428.612305 
	C463.609070,430.111084 460.973358,429.123016 458.625397,426.219788 
	C456.461304,423.543884 453.732117,421.332306 451.369141,418.806427 
	C450.353943,417.721252 449.635193,416.358765 448.781799,415.122284 
	C449.104034,414.732697 449.426270,414.343140 449.748535,413.953583 
	C451.180237,414.656036 452.595276,415.395508 454.048126,416.051025 
	C455.649170,416.773407 457.284943,417.418762 459.076477,417.794739 
	C461.826385,421.083923 464.405365,424.676025 467.044434,428.612305 
z"/>
<path fill="#121612" opacity="1.000000" stroke="none" 
	d="
M338.522522,379.785522 
	C335.851715,381.160004 333.364105,382.164948 330.522156,383.241241 
	C328.108429,381.035767 325.851135,378.900970 324.072357,376.422729 
	C323.170776,375.166626 323.132751,373.290710 322.704346,371.695007 
	C323.246887,371.472137 323.789459,371.249298 324.332001,371.026428 
	C327.149170,373.632080 329.966309,376.237732 332.783447,378.843353 
	C333.052734,378.691864 333.321991,378.540375 333.591248,378.388885 
	C333.080353,377.044800 332.222656,375.717560 332.156250,374.351868 
	C332.090027,372.989716 332.816956,371.588959 333.313599,369.776367 
	C335.378296,372.811768 336.910736,375.064697 338.685181,377.562683 
	C338.853363,378.343811 338.779510,378.879883 338.522522,379.785522 
z"/>
<path fill="#121612" opacity="1.000000" stroke="none" 
	d="
M437.122650,434.318298 
	C441.243408,432.056488 444.916962,433.115509 447.433319,436.632263 
	C449.953491,440.154358 449.471344,444.024475 446.786072,447.947327 
	C443.493286,443.777466 440.335022,439.219177 437.122650,434.318298 
z"/>
<path fill="#3FB825" opacity="1.000000" stroke="none" 
	d="
M288.964417,255.096008 
	C296.405701,256.742157 303.782959,258.894745 311.311981,259.847137 
	C315.929016,260.431183 320.778687,259.176331 325.779907,258.483887 
	C326.464630,258.185760 326.893311,258.150970 327.581909,258.445862 
	C325.585510,262.569244 323.329193,266.362976 321.072876,270.156677 
	C321.704590,267.328766 322.336304,264.500854 323.056000,261.279144 
	C314.021881,264.162415 305.277466,261.109375 296.430115,258.710663 
	C294.955505,258.310852 293.273651,258.675415 291.344055,258.843475 
	C291.000519,259.000183 291.006378,259.004517 290.874451,258.710693 
	C290.149780,257.309906 289.557098,256.202972 288.964417,255.096008 
z"/>
<path fill="#3FB825" opacity="1.000000" stroke="none" 
	d="
M243.359436,304.854126 
	C237.538422,303.058197 232.048492,301.228516 226.544220,298.898010 
	C227.175018,298.297180 227.878983,297.976593 228.456360,298.130615 
	C235.659714,300.051971 242.844681,302.042236 250.034378,304.014801 
	C256.519806,304.166473 263.005249,304.318146 269.752319,304.989197 
	C270.013947,305.508514 269.969940,305.916931 269.969940,305.916931 
	C269.226318,305.923065 268.482666,305.929199 266.916962,305.955444 
	C260.728210,305.998901 255.361542,306.022217 249.994873,306.045532 
	C249.564621,305.947418 249.134369,305.849274 248.131622,305.567627 
	C246.697418,305.304047 245.835724,305.223969 244.974030,305.143890 
	C244.546204,305.036041 244.118378,304.928192 243.359436,304.854126 
z"/>
<path fill="#E5FAE0" opacity="1.000000" stroke="none" 
	d="
M199.966644,376.689758 
	C191.608337,366.347229 188.374084,354.022186 188.765747,340.306610 
	C190.170319,341.895844 191.385437,343.805328 192.035156,344.826294 
	C191.786896,346.971924 191.496124,348.301147 191.501556,349.629150 
	C191.538391,358.598358 196.299179,365.991455 199.635544,373.863922 
	C199.944931,374.593933 199.888077,375.479218 199.966644,376.689758 
z"/>
<path fill="#E5FAE0" opacity="1.000000" stroke="none" 
	d="
M189.332062,337.758057 
	C190.091873,324.994171 194.472137,313.432129 203.920975,303.756775 
	C206.578247,307.439819 201.775314,307.864532 200.873825,310.276337 
	C197.434616,319.477448 193.406311,328.458374 189.332062,337.758057 
z"/>
<path fill="#E5FAE0" opacity="1.000000" stroke="none" 
	d="
M228.991974,265.292114 
	C224.462616,270.648102 219.568390,275.902313 214.539139,281.301453 
	C214.971329,276.937866 215.372803,272.884399 215.887238,268.424683 
	C216.853653,269.411224 217.707123,270.803955 218.587830,272.241089 
	C221.682053,270.067963 225.154587,267.629150 228.991974,265.292114 
z"/>
<path fill="#121612" opacity="1.000000" stroke="none" 
	d="
M446.865967,448.664673 
	C455.557526,448.222931 464.460876,448.140076 473.362427,447.965179 
	C475.131622,447.930420 476.893890,447.543091 478.929260,446.967407 
	C479.711853,447.217529 480.224487,447.818573 481.224762,448.991302 
	C469.386871,448.991302 458.231995,448.991302 446.865967,448.664673 
z"/>
<path fill="#E5FAE0" opacity="1.000000" stroke="none" 
	d="
M287.083618,300.259216 
	C290.855225,297.962128 294.626831,295.665009 298.975647,293.300232 
	C299.823212,292.987427 300.093567,292.742249 300.363892,292.497070 
	C300.363892,292.497070 300.418274,292.426392 300.731079,292.350708 
	C301.737488,291.638977 302.431030,291.002930 303.124573,290.366882 
	C303.508545,290.206390 303.892548,290.045898 304.584351,289.827026 
	C304.469910,290.780396 304.322113,292.105682 303.581604,292.753815 
	C298.106842,297.545776 291.958374,301.285065 285.133179,303.843140 
	C284.661499,304.019958 283.936218,303.520172 283.320984,302.777710 
	C284.569916,301.566681 285.826752,300.912964 287.083618,300.259216 
z"/>
<path fill="#E5FAE0" opacity="1.000000" stroke="none" 
	d="
M203.502518,282.944061 
	C203.174606,275.430511 203.174606,267.840759 203.174606,259.582550 
	C206.558655,265.615417 207.754349,271.701080 206.902481,278.648193 
	C205.821716,280.303986 204.826065,281.585938 203.502518,282.944061 
z"/>
<path fill="#62E323" opacity="1.000000" stroke="none" 
	d="
M354.942688,379.764008 
	C357.833405,378.025574 360.724121,376.287140 363.614868,374.548706 
	C363.552551,374.253387 363.490265,373.958038 363.427948,373.662689 
	C361.090302,374.087524 358.752625,374.512360 356.006500,374.900787 
	C358.841797,373.755859 362.085571,372.647278 365.699341,371.433289 
	C366.127686,372.594147 366.186066,373.860474 365.772827,375.582886 
	C361.848389,377.280640 358.395538,378.522339 354.942688,379.764008 
z"/>
<path fill="#E5FAE0" opacity="1.000000" stroke="none" 
	d="
M321.032166,270.383179 
	C323.329193,266.362976 325.585510,262.569244 327.904663,258.429199 
	C328.532806,258.878174 329.762756,260.084076 329.563263,260.407135 
	C326.740173,264.978210 323.722992,269.429413 320.269623,273.850586 
	C319.786407,273.791504 319.486450,273.498657 319.610840,273.240540 
	C320.052124,272.306244 320.368958,271.630096 320.685791,270.953918 
	C320.685791,270.953918 320.991394,270.609711 321.032166,270.383179 
z"/>
<path fill="#3FB825" opacity="1.000000" stroke="none" 
	d="
M277.480469,410.955505 
	C275.343842,411.848602 272.771637,412.736938 270.061584,413.903381 
	C265.959137,414.270325 261.994537,414.359161 257.634888,414.329651 
	C263.841492,413.124512 270.443176,412.037628 277.480469,410.955505 
z"/>
<path fill="#E5FAE0" opacity="1.000000" stroke="none" 
	d="
M250.088684,306.437195 
	C255.361542,306.022217 260.728210,305.998901 266.557861,306.056732 
	C266.677307,306.661621 266.316559,307.651489 265.992920,307.639526 
	C260.720001,307.444244 255.451782,307.122253 250.088684,306.437195 
z"/>
<path fill="#E5FAE0" opacity="1.000000" stroke="none" 
	d="
M196.990387,234.666122 
	C195.196060,232.113388 193.425278,229.151123 191.320160,226.062943 
	C191.672729,225.691925 192.673920,225.031769 192.992493,225.273026 
	C194.421494,226.355164 195.656311,227.693710 197.386658,229.345993 
	C197.300308,230.483673 197.157120,232.370132 196.990387,234.666122 
z"/>
<path fill="#E5FAE0" opacity="1.000000" stroke="none" 
	d="
M186.108124,270.205566 
	C188.799103,273.272614 191.427048,276.717804 194.131836,280.494049 
	C189.038879,279.363098 186.012558,276.192566 186.108124,270.205566 
z"/>
<path fill="#3FB825" opacity="1.000000" stroke="none" 
	d="
M207.977203,292.029907 
	C206.533203,293.460358 204.966370,294.545227 203.180023,295.293121 
	C202.920975,294.764160 202.881439,294.572205 203.103439,294.052551 
	C203.658249,293.562805 203.761490,293.319977 203.674713,292.996368 
	C204.456757,290.647217 205.238800,288.298035 206.332611,285.504028 
	C206.833694,285.051941 207.022995,285.044769 207.212296,285.037628 
	C207.426315,287.253174 207.640350,289.468750 207.977203,292.029907 
z"/>
<path fill="#E5FAE0" opacity="1.000000" stroke="none" 
	d="
M210.973999,250.765625 
	C208.271881,248.022263 205.611237,244.899490 202.822174,241.459702 
	C207.425095,242.461670 209.996506,245.725159 210.973999,250.765625 
z"/>
<path fill="#E5FAE0" opacity="1.000000" stroke="none" 
	d="
M214.887512,391.779846 
	C212.537857,390.426270 210.242676,388.643280 207.848267,386.541687 
	C210.561539,387.350189 215.711548,385.198181 214.887512,391.779846 
z"/>
<path fill="#3FB825" opacity="1.000000" stroke="none" 
	d="
M230.003525,411.828918 
	C233.915421,412.450989 237.827332,413.073059 241.896729,414.027344 
	C238.255646,413.961975 234.457077,413.564392 230.313934,412.729584 
	C229.969376,412.292358 230.003525,411.828918 230.003525,411.828918 
z"/>
<path fill="#E5FAE0" opacity="1.000000" stroke="none" 
	d="
M206.853699,384.854919 
	C205.124344,383.536072 203.460709,381.822327 201.686981,379.799438 
	C203.549164,379.490295 205.521408,379.490295 207.560135,379.490295 
	C207.319443,381.357239 207.119415,382.908661 206.853699,384.854919 
z"/>
<path fill="#3FB825" opacity="1.000000" stroke="none" 
	d="
M179.742493,366.295105 
	C181.559708,370.232666 183.341721,374.527191 185.132645,379.184570 
	C183.330139,375.248962 181.518723,370.950531 179.742493,366.295105 
z"/>
<path fill="#E5FAE0" opacity="1.000000" stroke="none" 
	d="
M314.692505,278.941132 
	C314.692535,278.941132 315.018951,278.701447 315.335754,278.387421 
	C315.801697,277.732056 315.950867,277.390686 316.100037,277.049347 
	C316.100037,277.049347 316.012543,277.018829 316.328369,276.923096 
	C317.591614,275.717804 318.539032,274.608215 319.486450,273.498657 
	C319.486450,273.498657 319.786407,273.791504 319.937347,273.938477 
	C318.021606,276.746948 315.954956,279.408478 313.463989,282.058777 
	C313.039703,282.047546 312.911530,281.914246 312.923065,281.675079 
	C312.934601,281.435913 312.894897,280.958649 312.894897,280.958649 
	C312.894897,280.958649 312.976074,280.969849 313.221497,280.844666 
	C313.875458,280.126678 314.283997,279.533905 314.692505,278.941132 
z"/>
<path fill="#E5FAE0" opacity="1.000000" stroke="none" 
	d="
M243.158173,256.183502 
	C240.950974,257.829895 238.327911,259.385986 235.358215,260.984009 
	C235.806183,256.588470 239.501419,256.696869 243.158173,256.183502 
z"/>
<path fill="#3FB825" opacity="1.000000" stroke="none" 
	d="
M219.636093,408.955505 
	C222.428757,409.568024 224.835785,410.254944 227.643707,411.162659 
	C228.096039,411.684479 228.099380,411.985931 228.054581,412.287903 
	C225.015884,411.465057 221.977203,410.642212 218.718094,409.536804 
	C218.748611,409.179474 218.999527,409.104706 219.636093,408.955505 
z"/>
<path fill="#3FB825" opacity="1.000000" stroke="none" 
	d="
M196.898636,395.453979 
	C198.845367,396.790710 200.902893,398.440918 202.996063,400.420502 
	C201.024277,399.089050 199.016861,397.428253 196.898636,395.453979 
z"/>
<path fill="#E5FAE0" opacity="1.000000" stroke="none" 
	d="
M194.124817,281.171478 
	C196.049911,282.316925 197.918945,283.840302 199.906921,285.672668 
	C198.040176,284.504242 196.054474,283.026825 194.124817,281.171478 
z"/>
<path fill="#3FB825" opacity="1.000000" stroke="none" 
	d="
M209.893890,405.580811 
	C212.360016,406.374207 215.007904,407.448181 217.829712,408.826324 
	C215.360977,408.040802 212.718323,406.951080 209.893890,405.580811 
z"/>
<path fill="#E5FAE0" opacity="1.000000" stroke="none" 
	d="
M275.222229,305.225250 
	C274.976349,304.934631 275.119171,304.535797 275.546814,304.388275 
	C276.993378,303.838226 278.012238,303.435669 279.031128,303.033112 
	C279.486877,303.025330 279.942596,303.017517 280.733398,303.080017 
	C280.691956,307.466980 277.802673,305.834778 275.222229,305.225250 
z"/>
<path fill="#3FB825" opacity="1.000000" stroke="none" 
	d="
M286.909851,299.972656 
	C285.826752,300.912964 284.569916,301.566681 283.123657,302.462585 
	C282.478851,302.758484 282.023407,302.812164 281.230469,302.798248 
	C282.840698,301.715790 284.788391,300.700958 286.909851,299.972656 
z"/>
<path fill="#E5FAE0" opacity="1.000000" stroke="none" 
	d="
M202.066437,240.280884 
	C200.699768,239.333923 199.340179,238.021606 197.909103,236.391571 
	C198.987961,236.363678 200.138336,236.653519 201.644348,236.971680 
	C202.000000,237.000000 201.990982,236.993057 201.990997,236.993057 
	C202.018494,237.967209 202.045990,238.941376 202.066437,240.280884 
z"/>
<path fill="#E5FAE0" opacity="1.000000" stroke="none" 
	d="
M204.894989,303.369629 
	C205.014786,302.639343 205.449905,302.121490 206.287354,301.296753 
	C207.559265,300.424622 208.428879,299.859467 209.298492,299.294281 
	C209.298492,299.294281 209.636337,299.633972 209.805054,299.803467 
	C208.385971,301.175964 206.798157,302.378998 204.894989,303.369629 
z"/>
<path fill="#3FB825" opacity="1.000000" stroke="none" 
	d="
M305.220764,288.986328 
	C304.789642,286.563843 305.181366,284.654449 308.604828,285.359619 
	C308.280670,286.458832 307.641602,287.225464 307.002502,287.992096 
	C307.002502,287.992096 306.998779,287.998779 306.736389,288.051453 
	C306.294464,288.393951 306.114929,288.683746 305.935425,288.973572 
	C305.935425,288.973572 305.458740,289.008209 305.220764,288.986328 
z"/>
<path fill="#E5FAE0" opacity="1.000000" stroke="none" 
	d="
M216.184204,265.815033 
	C215.652283,264.893982 215.393921,263.774994 215.194733,262.308289 
	C215.655197,263.179382 216.056488,264.398254 216.184204,265.815033 
z"/>
<path fill="#25A80E" opacity="1.000000" stroke="none" 
	d="
M228.348343,412.484070 
	C228.099380,411.985931 228.096039,411.684479 228.034317,411.155701 
	C228.657776,411.048798 229.291504,411.169739 229.964386,411.559814 
	C230.003525,411.828918 229.969376,412.292358 230.003494,412.522186 
	C229.572449,412.728088 229.107269,412.704163 228.348343,412.484070 
z"/>
<path fill="#E5FAE0" opacity="1.000000" stroke="none" 
	d="
M307.365173,288.005127 
	C307.641602,287.225464 308.280670,286.458832 309.004028,285.396851 
	C309.088318,285.101501 309.046844,285.071350 309.301025,285.105896 
	C309.555206,285.140442 310.048676,285.150360 310.048676,285.150360 
	C309.275085,286.106293 308.501495,287.062225 307.365173,288.005127 
z"/>
<path fill="#E5FAE0" opacity="1.000000" stroke="none" 
	d="
M245.032028,305.465363 
	C245.835724,305.223969 246.697418,305.304047 247.801208,305.608093 
	C247.058868,305.816986 246.074448,305.801910 245.032028,305.465363 
z"/>
<path fill="#E5FAE0" opacity="1.000000" stroke="none" 
	d="
M270.149231,306.180298 
	C269.969940,305.916931 270.013947,305.508514 270.036560,305.304260 
	C270.804382,305.081055 271.549652,305.062103 272.661621,305.118042 
	C272.128448,305.609863 271.228485,306.026764 270.149231,306.180298 
z"/>
<path fill="#121612" opacity="1.000000" stroke="none" 
	d="
M440.458313,317.530090 
	C439.630463,317.706818 438.606293,317.678619 437.308105,317.373718 
	C438.110046,317.173096 439.186066,317.249146 440.458313,317.530090 
z"/>
<path fill="#E5FAE0" opacity="1.000000" stroke="none" 
	d="
M213.963303,256.782837 
	C213.271835,256.013580 212.627487,254.855087 211.972351,253.357025 
	C212.644516,254.142838 213.327469,255.268219 213.963303,256.782837 
z"/>
<path fill="#E5FAE0" opacity="1.000000" stroke="none" 
	d="
M231.754852,263.038696 
	C231.419693,263.780701 230.697418,264.494812 229.677505,265.292877 
	C230.042480,264.588165 230.705109,263.799500 231.754852,263.038696 
z"/>
<path fill="#3FB825" opacity="1.000000" stroke="none" 
	d="
M206.780792,403.464905 
	C207.634583,403.654236 208.650681,404.129517 209.719635,404.970032 
	C208.829361,404.807098 207.886215,404.278992 206.780792,403.464905 
z"/>
<path fill="#121612" opacity="1.000000" stroke="none" 
	d="
M445.355408,318.609802 
	C444.819092,318.749847 444.155548,318.688843 443.265564,318.370728 
	C443.768799,318.212006 444.498444,318.310364 445.355408,318.609802 
z"/>
<path fill="#E5FAE0" opacity="1.000000" stroke="none" 
	d="
M215.128418,259.896667 
	C214.602280,259.545990 214.322525,259.051208 214.106842,258.264160 
	C214.572220,258.565399 214.973526,259.158997 215.128418,259.896667 
z"/>
<path fill="#3FB825" opacity="1.000000" stroke="none" 
	d="
M186.534927,382.133850 
	C187.027771,382.580505 187.556854,383.301727 188.078033,384.317566 
	C187.570465,383.877563 187.070816,383.142975 186.534927,382.133850 
z"/>
<path fill="#3FB825" opacity="1.000000" stroke="none" 
	d="
M203.797363,401.437225 
	C204.418198,401.488861 205.164093,401.818878 205.968597,402.480194 
	C205.325623,402.446198 204.624023,402.080902 203.797363,401.437225 
z"/>
<path fill="#E5FAE0" opacity="1.000000" stroke="none" 
	d="
M201.088287,287.211365 
	C201.454758,286.797394 201.831528,286.707947 202.496552,286.580414 
	C202.676819,287.150604 202.568863,287.758911 202.460892,288.367188 
	C202.006790,288.090088 201.552689,287.813019 201.088287,287.211365 
z"/>
<path fill="#3FB825" opacity="1.000000" stroke="none" 
	d="
M202.698547,294.908661 
	C202.763458,295.678680 202.568344,296.399811 202.373245,297.120972 
	C201.960983,296.988464 201.548721,296.855957 201.113297,296.401215 
	C201.090149,296.078949 201.047607,296.057068 201.301270,295.989075 
	C201.677429,295.606232 201.799942,295.291412 201.922455,294.976593 
	C202.094482,294.937683 202.266510,294.898743 202.698547,294.908661 
z"/>
<path fill="#121612" opacity="1.000000" stroke="none" 
	d="
M449.086243,319.729065 
	C448.608093,319.816925 448.011688,319.721344 447.229248,319.376129 
	C447.684784,319.266174 448.326385,319.405884 449.086243,319.729065 
z"/>
<path fill="#E5FAE0" opacity="1.000000" stroke="none" 
	d="
M201.615601,379.052460 
	C200.987045,378.813873 200.478333,378.232086 199.939697,377.354980 
	C200.518341,377.609558 201.126892,378.159393 201.615601,379.052460 
z"/>
<path fill="#3FB825" opacity="1.000000" stroke="none" 
	d="
M188.660278,385.453461 
	C189.108047,385.731293 189.613892,386.299316 190.148239,387.184204 
	C189.690613,386.915283 189.204483,386.329468 188.660278,385.453461 
z"/>
<path fill="#3FB825" opacity="1.000000" stroke="none" 
	d="
M191.702866,389.573853 
	C192.095215,389.629761 192.537933,389.968262 192.998962,390.617126 
	C192.595932,390.570496 192.174576,390.213470 191.702866,389.573853 
z"/>
<path fill="#3FB825" opacity="1.000000" stroke="none" 
	d="
M190.467743,388.119080 
	C190.856430,388.163239 191.289429,388.468628 191.705963,389.053284 
	C191.297028,389.015167 190.904556,388.697754 190.467743,388.119080 
z"/>
<path fill="#62E323" opacity="1.000000" stroke="none" 
	d="
M326.271790,412.346741 
	C326.234222,412.108337 326.392273,412.005219 326.732605,411.956696 
	C326.856537,412.232544 326.707397,412.389465 326.271790,412.346741 
z"/>
<path fill="#3FB825" opacity="1.000000" stroke="none" 
	d="
M193.969269,392.267853 
	C194.004257,392.361481 193.972961,392.261200 193.999664,392.244324 
	C194.026382,392.227417 193.934296,392.174225 193.969269,392.267853 
z"/>
<path fill="#E5FAE0" opacity="1.000000" stroke="none" 
	d="
M306.184143,288.904602 
	C306.114929,288.683746 306.294464,288.393951 306.732788,288.053406 
	C306.805328,288.280304 306.619110,288.557953 306.184143,288.904602 
z"/>
<path fill="#E5FAE0" opacity="1.000000" stroke="none" 
	d="
M202.003448,237.004486 
	C202.094681,236.970535 202.182465,236.932114 202.130615,236.943375 
	C201.990982,236.993057 202.000000,237.000000 202.003448,237.004486 
z"/>
<path fill="#E5FAE0" opacity="1.000000" stroke="none" 
	d="
M200.107941,286.219208 
	C200.328735,286.116364 200.643143,286.259979 201.035873,286.663330 
	C200.809982,286.770630 200.505768,286.618164 200.107941,286.219208 
z"/>
<path fill="#E5FAE0" opacity="1.000000" stroke="none" 
	d="
M207.227173,284.735901 
	C207.022995,285.044769 206.833694,285.051941 206.364990,285.110352 
	C206.161896,284.837433 206.238235,284.513275 206.576935,283.759735 
	C206.973541,283.698273 207.107788,284.066223 207.227173,284.735901 
z"/>
<path fill="#E5FAE0" opacity="1.000000" stroke="none" 
	d="
M195.719788,305.077484 
	C195.798035,305.274017 195.647812,305.568115 195.252426,305.939941 
	C195.048752,305.667969 195.210098,305.387085 195.719788,305.077484 
z"/>
<path fill="#3FB825" opacity="1.000000" stroke="none" 
	d="
M310.401184,284.120056 
	C310.289398,283.869781 310.449860,283.552887 310.877380,283.158630 
	C310.987457,283.405273 310.830444,283.729370 310.401184,284.120056 
z"/>
<path fill="#E5FAE0" opacity="1.000000" stroke="none" 
	d="
M313.102051,282.115845 
	C313.001892,282.472412 312.779907,282.703583 312.255859,282.689575 
	C312.003113,282.330750 311.992981,282.160034 311.982880,281.989319 
	C311.982880,281.989319 312.000000,282.000000 312.226746,281.995300 
	C312.453491,281.990631 312.911530,281.914246 312.911530,281.914246 
	C312.911530,281.914246 313.039703,282.047546 313.102051,282.115845 
z"/>
<path fill="#3FB825" opacity="1.000000" stroke="none" 
	d="
M311.741882,282.099030 
	C311.992981,282.160034 312.003113,282.330750 312.023163,282.757812 
	C312.033081,283.014130 311.566406,283.115265 311.328247,283.132507 
	C311.227020,282.836060 311.363953,282.522400 311.741882,282.099030 
z"/>
<path fill="#E5FAE0" opacity="1.000000" stroke="none" 
	d="
M197.735474,303.069092 
	C197.802994,303.269104 197.643066,303.556641 197.231598,303.896851 
	C197.042267,303.609436 197.218262,303.345154 197.735474,303.069092 
z"/>
<path fill="#3FB825" opacity="1.000000" stroke="none" 
	d="
M179.020309,363.249695 
	C179.208908,363.252441 179.348755,363.514648 179.345505,363.880310 
	C179.125443,363.825592 179.048508,363.667328 179.020309,363.249695 
z"/>
<path fill="#3FB825" opacity="1.000000" stroke="none" 
	d="
M310.112030,284.897766 
	C310.048676,285.150360 309.555206,285.140442 309.308838,285.128235 
	C309.258270,284.816772 309.454102,284.517548 309.924255,284.171570 
	C310.190796,284.298248 310.183075,284.471710 310.112030,284.897766 
z"/>
<path fill="#3FB825" opacity="1.000000" stroke="none" 
	d="
M185.969330,381.395508 
	C185.954056,381.426178 185.961578,381.293884 185.971283,381.260010 
	C185.980988,381.226166 185.984604,381.364868 185.969330,381.395508 
z"/>
<path fill="#E5FAE0" opacity="1.000000" stroke="none" 
	d="
M201.693146,295.086670 
	C201.799942,295.291412 201.677429,295.606232 201.309784,296.009918 
	C201.197693,295.798126 201.330765,295.497467 201.693146,295.086670 
z"/>
<path fill="#E5FAE0" opacity="1.000000" stroke="none" 
	d="
M207.757843,385.974884 
	C207.490234,386.084534 207.183807,385.908112 206.809998,385.464233 
	C207.068085,385.360840 207.393555,385.524811 207.757843,385.974884 
z"/>
<path fill="#E5FAE0" opacity="1.000000" stroke="none" 
	d="
M203.497925,293.072052 
	C203.761490,293.319977 203.658249,293.562805 203.155670,293.763245 
	C202.980820,293.531799 203.105759,293.313843 203.497925,293.072052 
z"/>
<path fill="#E5FAE0" opacity="1.000000" stroke="none" 
	d="
M196.723190,304.067200 
	C196.793259,304.267914 196.637131,304.555664 196.230179,304.895996 
	C196.039841,304.610748 196.212387,304.345947 196.723190,304.067200 
z"/>
<path fill="#3FB825" opacity="1.000000" stroke="none" 
	d="
M194.710022,393.086731 
	C194.788208,392.999451 194.859879,393.068909 194.874374,393.087402 
	C194.888870,393.105896 194.631836,393.174042 194.710022,393.086731 
z"/>
<path fill="#3FB825" opacity="1.000000" stroke="none" 
	d="
M195.834961,394.382141 
	C196.081345,394.289154 196.401291,394.470947 196.789825,394.931274 
	C196.541779,395.025543 196.225159,394.841248 195.834961,394.382141 
z"/>
<path fill="#FEFEFE" opacity="1.000000" stroke="none" 
	d="
M396.008209,364.968079 
	C396.008209,357.824432 396.008209,350.680817 396.008209,342.267975 
	C408.755676,342.865997 421.839691,342.188080 434.408600,344.416077 
	C448.246460,346.868988 452.082214,363.698303 441.703857,375.027100 
	C439.165375,374.977264 437.354431,374.699646 435.546509,374.718109 
	C428.360565,374.791412 421.175537,374.957153 413.551605,375.049194 
	C409.402313,375.348938 405.691620,375.688202 401.828674,375.821777 
	C400.973450,375.931396 400.270416,376.246674 399.232483,376.599304 
	C398.244202,376.796051 397.590820,376.955383 396.729370,377.014099 
	C396.521301,376.913483 396.059113,376.906006 396.059113,376.906006 
	C395.963898,374.230255 395.868683,371.554474 396.344543,368.462830 
	C400.769409,367.545044 404.623199,367.043182 408.477020,366.541321 
	C408.441589,366.016907 408.406189,365.492493 408.370758,364.968079 
	C404.249908,364.968079 400.129059,364.968079 396.008209,364.968079 
z"/>
<path fill="#E5FAE0" opacity="1.000000" stroke="none" 
	d="
M354.914001,379.844940 
	C358.395538,378.522339 361.848389,377.280640 365.654968,375.952148 
	C366.044708,378.825989 366.080688,381.786621 365.998779,385.147430 
	C357.898041,388.726349 349.915131,391.905060 341.649780,395.307892 
	C341.367340,395.532013 341.110657,395.569427 340.682617,395.688599 
	C339.013489,396.462463 337.772430,397.117218 336.531342,397.771942 
	C334.829773,398.393158 333.128235,399.014404 331.186096,399.313873 
	C332.005005,395.940460 333.064453,392.888824 334.123901,389.837219 
	C338.939819,387.447144 343.755768,385.057037 349.147034,382.424194 
	C350.280334,381.851379 350.838348,381.521362 351.396362,381.191345 
	C351.396362,381.191345 351.733124,381.211121 352.178833,381.124512 
	C353.325745,380.644073 354.026978,380.250275 354.728210,379.856445 
	C354.728210,379.856476 354.885284,379.925873 354.914001,379.844940 
z"/>
<path fill="#BFF746" opacity="1.000000" stroke="none" 
	d="
M413.990173,375.088654 
	C421.175537,374.957153 428.360565,374.791412 435.546509,374.718109 
	C437.354431,374.699646 439.165375,374.977264 441.386383,375.210419 
	C437.002045,377.150421 432.338867,379.670837 427.371704,380.651154 
	C422.750275,381.563171 417.805054,380.834473 412.770020,380.486450 
	C414.694702,379.369873 416.851715,378.594971 420.260010,377.370575 
	C417.163971,376.243774 415.577057,375.666229 413.990173,375.088654 
z"/>
<path fill="#62E323" opacity="1.000000" stroke="none" 
	d="
M413.551605,375.049194 
	C415.577057,375.666229 417.163971,376.243774 420.260010,377.370575 
	C416.851715,378.594971 414.694702,379.369873 412.310608,380.426453 
	C407.375153,380.781647 402.666809,380.855103 397.468445,380.442352 
	C396.964813,379.009003 396.951141,378.061890 396.937469,377.114746 
	C397.590820,376.955383 398.244202,376.796051 399.558838,376.739563 
	C400.807068,376.570740 401.393982,376.299103 401.980896,376.027435 
	C405.691620,375.688202 409.402313,375.348938 413.551605,375.049194 
z"/>
<path fill="#121612" opacity="1.000000" stroke="none" 
	d="
M450.344727,430.471497 
	C452.543488,433.490112 454.681458,433.688995 457.236786,431.391296 
	C457.859802,430.831116 459.167542,431.032471 460.160431,430.883636 
	C459.846405,431.984833 459.844421,433.745117 459.162018,434.068146 
	C456.764740,435.203003 453.759308,437.017365 451.691071,436.358032 
	C449.394806,435.625946 447.044952,432.750031 446.202484,430.297699 
	C444.854309,426.373260 448.001160,424.166962 451.938019,422.652863 
	C451.351379,425.143036 450.764771,427.633179 450.344727,430.471497 
z"/>
<path fill="#E5FAE0" opacity="1.000000" stroke="none" 
	d="
M395.913239,365.344971 
	C400.129059,364.968079 404.249908,364.968079 408.370758,364.968079 
	C408.406189,365.492493 408.441589,366.016907 408.477020,366.541321 
	C404.623199,367.043182 400.769409,367.545044 396.488617,368.037170 
	C395.980499,367.258942 395.899384,366.490387 395.913239,365.344971 
z"/>
<path fill="#BFF746" opacity="1.000000" stroke="none" 
	d="
M396.729370,377.014099 
	C396.951141,378.061890 396.964813,379.009003 397.023438,380.310059 
	C396.630951,379.576599 396.193481,378.489258 395.907562,377.153961 
	C396.059113,376.906006 396.521301,376.913483 396.729370,377.014099 
z"/>
<path fill="#3FB825" opacity="1.000000" stroke="none" 
	d="
M209.511398,299.037170 
	C208.428879,299.859467 207.559265,300.424622 206.385025,301.059570 
	C205.819809,300.287964 205.559250,299.446594 205.153625,298.303284 
	C208.757141,295.575958 212.505722,293.150543 216.254318,290.725128 
	C216.592285,291.105225 216.930267,291.485321 217.268234,291.865387 
	C214.753601,294.170288 212.238953,296.475159 209.511398,299.037170 
z"/>
<path fill="#3FB825" opacity="1.000000" stroke="none" 
	d="
M290.998016,258.997711 
	C289.194916,261.225922 287.394318,263.456604 285.289062,265.835083 
	C282.646454,265.092560 278.343292,266.624390 280.129761,261.258087 
	C284.209900,260.351685 287.608154,259.678101 291.006378,259.004517 
	C291.006378,259.004517 291.000519,259.000183 290.998016,258.997711 
z"/>
<path fill="#2ABF04" opacity="1.000000" stroke="none" 
	d="
M290.874451,258.710693 
	C287.608154,259.678101 284.209900,260.351685 280.396667,261.020325 
	C281.195557,259.198944 282.409424,257.382507 284.272461,255.290436 
	C285.801331,254.928085 286.681122,254.841354 287.560883,254.754623 
	C287.889435,254.774643 288.217957,254.794647 288.755463,254.955322 
	C289.557098,256.202972 290.149780,257.309906 290.874451,258.710693 
z"/>
<path fill="#3FB825" opacity="1.000000" stroke="none" 
	d="
M277.929077,253.086441 
	C279.404907,252.905930 280.705505,253.010803 282.323608,253.352966 
	C280.935913,254.486267 279.230682,255.382278 276.549133,256.791260 
	C277.075806,255.296356 277.414825,254.334076 277.929077,253.086441 
z"/>
<path fill="#3FB825" opacity="1.000000" stroke="none" 
	d="
M277.987335,271.996521 
	C278.987183,271.209656 279.987030,270.422760 281.006592,269.277985 
	C281.693054,269.713898 282.359833,270.507751 283.026733,271.657257 
	C282.572235,272.025299 282.117676,272.037659 280.948792,272.052032 
	C279.485474,272.034851 278.736389,272.015686 277.987335,271.996521 
z"/>
<path fill="#3FB825" opacity="1.000000" stroke="none" 
	d="
M276.967468,267.506866 
	C275.325623,267.789917 273.623627,267.743652 271.543091,267.506531 
	C273.078796,267.269653 274.993011,267.223602 276.967468,267.506866 
z"/>
<path fill="#3FB825" opacity="1.000000" stroke="none" 
	d="
M267.955872,266.986755 
	C267.274963,267.349396 266.490997,267.461609 265.321136,267.451782 
	C265.907745,267.131927 266.880310,266.934113 267.955872,266.986755 
z"/>
<path fill="#3FB825" opacity="1.000000" stroke="none" 
	d="
M284.800049,269.036499 
	C285.204437,269.580383 285.408875,270.284485 285.309082,271.054626 
	C284.869934,270.479309 284.734985,269.838013 284.800049,269.036499 
z"/>
<path fill="#3FB825" opacity="1.000000" stroke="none" 
	d="
M273.300293,252.406647 
	C274.307800,252.181137 275.598694,252.224411 277.206787,252.505981 
	C276.210541,252.721313 274.897095,252.698364 273.300293,252.406647 
z"/>
<path fill="#3FB825" opacity="1.000000" stroke="none" 
	d="
M262.729126,267.419250 
	C262.214935,267.778748 261.483765,267.946106 260.382568,268.026947 
	C260.845764,267.702667 261.678955,267.464905 262.729126,267.419250 
z"/>
<path fill="#3FB825" opacity="1.000000" stroke="none" 
	d="
M262.244446,252.522736 
	C262.776978,252.205338 263.513855,252.091660 264.617950,252.064117 
	C264.139709,252.342300 263.294220,252.534378 262.244446,252.522736 
z"/>
<path fill="#3FB825" opacity="1.000000" stroke="none" 
	d="
M212.517548,288.967285 
	C212.377884,289.548004 211.954391,290.162598 211.251694,290.735718 
	C211.392914,290.129883 211.813339,289.565521 212.517548,288.967285 
z"/>
<path fill="#3FB825" opacity="1.000000" stroke="none" 
	d="
M287.285583,254.491425 
	C286.681122,254.841354 285.801331,254.928085 284.482056,255.023010 
	C284.037964,254.826050 284.033386,254.620880 284.043945,254.108063 
	C285.042816,253.943024 286.026550,254.085617 287.285583,254.491425 
z"/>
<path fill="#3FB825" opacity="1.000000" stroke="none" 
	d="
M257.161346,268.186157 
	C256.894348,268.503662 256.290192,268.737976 255.358490,268.912140 
	C255.628693,268.602295 256.226440,268.352631 257.161346,268.186157 
z"/>
<path fill="#3FB825" opacity="1.000000" stroke="none" 
	d="
M215.017029,287.172913 
	C215.037079,287.392700 214.789337,287.629639 214.275574,287.896667 
	C214.256104,287.681183 214.502670,287.435638 215.017029,287.172913 
z"/>
<path fill="#3FB825" opacity="1.000000" stroke="none" 
	d="
M252.311401,269.321228 
	C252.277542,269.587830 251.941711,269.780670 251.310272,269.935730 
	C251.346268,269.681152 251.677856,269.464325 252.311401,269.321228 
z"/>
<path fill="#3FB825" opacity="1.000000" stroke="none" 
	d="
M249.232834,270.222656 
	C249.197922,270.459991 248.887131,270.643066 248.302307,270.774841 
	C248.337830,270.538513 248.647400,270.353485 249.232834,270.222656 
z"/>
<path fill="#121612" opacity="1.000000" stroke="none" 
	d="
M327.008942,384.153137 
	C324.964294,385.213287 322.454681,386.212646 319.572449,387.224976 
	C319.782928,381.835358 323.932922,384.760376 327.008942,384.153137 
z"/>
<path fill="#121612" opacity="1.000000" stroke="none" 
	d="
M309.684113,390.994080 
	C309.506287,391.285461 309.050812,391.584991 308.313538,391.845947 
	C308.489990,391.538971 308.948242,391.270569 309.684113,390.994080 
z"/>
<path fill="#121612" opacity="1.000000" stroke="none" 
	d="
M311.935730,390.100861 
	C311.719269,390.416199 311.176849,390.702820 310.317017,390.978577 
	C310.536346,390.669220 311.073090,390.370697 311.935730,390.100861 
z"/>
<path fill="#121612" opacity="1.000000" stroke="none" 
	d="
M318.931854,387.190430 
	C318.962158,387.404266 318.742523,387.648712 318.266937,387.914368 
	C318.234619,387.697418 318.458252,387.459198 318.931854,387.190430 
z"/>
<path fill="#121612" opacity="1.000000" stroke="none" 
	d="
M317.087341,388.167023 
	C317.081207,388.376099 316.817047,388.588379 316.293915,388.789581 
	C316.299744,388.575745 316.564545,388.372986 317.087341,388.167023 
z"/>
<path fill="#121612" opacity="1.000000" stroke="none" 
	d="
M314.137878,389.203430 
	C314.133057,389.423309 313.846619,389.647583 313.281677,389.881714 
	C313.287506,389.663635 313.571899,389.435760 314.137878,389.203430 
z"/>
<path fill="#25A80E" opacity="1.000000" stroke="none" 
	d="
M277.548065,272.023163 
	C278.736389,272.015686 279.485474,272.034851 280.608337,272.066467 
	C277.958466,274.026642 274.938629,275.980225 271.906769,277.914978 
	C271.499268,278.175018 270.676483,278.295593 270.643616,278.556091 
	C269.939941,284.135712 265.603821,284.176849 261.003448,284.275421 
	C263.532654,290.239105 258.769531,292.293823 255.954193,295.464355 
	C253.791321,297.900085 251.985611,300.653015 250.027740,303.639832 
	C242.844681,302.042236 235.659714,300.051971 228.456360,298.130615 
	C227.878983,297.976593 227.175018,298.297180 226.285324,298.652527 
	C225.478378,298.759064 224.916000,298.610291 224.140411,297.886658 
	C223.555954,296.446350 223.184723,295.580933 222.813492,294.715515 
	C237.854492,279.836243 256.117004,272.674072 277.548065,272.023163 
M264.524841,278.316742 
	C263.976807,277.977661 263.428772,277.638550 262.880768,277.299438 
	C262.745789,277.573792 262.610779,277.848175 262.475800,278.122528 
	C263.012451,278.327911 263.549072,278.533295 264.524841,278.316742 
z"/>
<path fill="#3FB825" opacity="1.000000" stroke="none" 
	d="
M319.610840,273.240540 
	C318.539032,274.608215 317.591614,275.717804 316.357544,276.959137 
	C315.882904,275.365967 315.694977,273.641052 315.435303,271.257721 
	C316.922852,271.161652 318.413544,271.065399 320.295013,270.961517 
	C320.368958,271.630096 320.052124,272.306244 319.610840,273.240540 
z"/>
<path fill="#3FB825" opacity="1.000000" stroke="none" 
	d="
M278.798553,302.759155 
	C278.012238,303.435669 276.993378,303.838226 275.638977,304.197571 
	C275.049164,303.657379 274.794830,303.160370 274.540527,302.663361 
	C275.882355,302.604004 277.224152,302.544617 278.798553,302.759155 
z"/>
<path fill="#3FB825" opacity="1.000000" stroke="none" 
	d="
M302.964417,290.058075 
	C302.431030,291.002930 301.737488,291.638977 300.775269,292.356689 
	C301.272522,291.541992 302.038361,290.645599 302.964417,290.058075 
z"/>
<path fill="#3FB825" opacity="1.000000" stroke="none" 
	d="
M314.400146,278.988831 
	C314.283997,279.533905 313.875458,280.126678 313.202698,280.808258 
	C313.328247,280.276886 313.718018,279.656738 314.400146,278.988831 
z"/>
<path fill="#3FB825" opacity="1.000000" stroke="none" 
	d="
M312.923065,281.675079 
	C312.911530,281.914246 312.453491,281.990631 312.221313,281.986694 
	C312.015106,281.635773 312.168396,281.359344 312.671936,281.056061 
	C312.894897,280.958649 312.934601,281.435913 312.923065,281.675079 
z"/>
<path fill="#3FB825" opacity="1.000000" stroke="none" 
	d="
M315.833191,277.163513 
	C315.950867,277.390686 315.801697,277.732056 315.390930,278.192596 
	C315.274994,277.967102 315.420654,277.622406 315.833191,277.163513 
z"/>
<path fill="#3FB825" opacity="1.000000" stroke="none" 
	d="
M300.091736,292.416595 
	C300.093567,292.742249 299.823212,292.987427 299.283569,293.146729 
	C299.282684,292.819305 299.551147,292.577698 300.091736,292.416595 
z"/>
<path fill="#3FB825" opacity="1.000000" stroke="none" 
	d="
M315.514862,416.306763 
	C315.674530,416.003876 316.149841,415.705139 316.803711,415.605896 
	C316.598358,415.973907 316.214447,416.142426 315.514862,416.306763 
z"/>
<path fill="#3FB825" opacity="1.000000" stroke="none" 
	d="
M314.258850,416.907440 
	C314.232361,416.681396 314.465424,416.452515 314.951904,416.214966 
	C314.976318,416.439056 314.747345,416.671814 314.258850,416.907440 
z"/>
<path fill="#121612" opacity="1.000000" stroke="none" 
	d="
M333.740082,389.864075 
	C333.064453,392.888824 332.005005,395.940460 330.845795,399.326599 
	C325.965546,401.837280 321.185089,404.013519 315.827240,406.489502 
	C314.691467,407.131073 314.133057,407.472931 313.574646,407.814789 
	C313.574646,407.814789 313.281097,407.774170 312.840820,407.849854 
	C311.905273,408.250702 311.409973,408.575897 310.914673,408.901062 
	C310.914673,408.901062 311.010071,408.963165 310.667328,408.907532 
	C309.843231,409.164886 309.361877,409.477905 308.880554,409.790894 
	C308.880554,409.790924 308.836487,409.795593 308.489563,409.763275 
	C307.358765,410.111481 306.574829,410.492004 305.790894,410.872498 
	C305.281555,411.030396 304.772247,411.188324 303.721130,411.578125 
	C301.636383,412.478241 300.093445,413.146423 298.550507,413.814636 
	C298.550507,413.814636 298.256073,413.760193 297.750580,413.846985 
	C294.707733,414.904938 292.170410,415.876129 289.633057,416.847290 
	C289.633057,416.847290 289.299530,416.858490 289.158142,416.946869 
	C288.560883,417.011810 288.105042,416.988373 287.316833,416.884033 
	C286.512451,414.562561 286.040375,412.322021 285.249390,409.765900 
	C284.930420,409.450348 284.997772,408.993713 284.997772,408.993713 
	C285.176300,408.976074 285.354858,408.958405 286.055298,408.858185 
	C286.869659,408.572632 287.162140,408.369598 287.454651,408.166565 
	C288.088989,408.080994 288.723358,407.995453 290.031799,407.826294 
	C295.857819,405.518250 301.009766,403.293793 306.161682,401.069336 
	C306.161682,401.069336 306.613007,400.991211 307.057739,400.888611 
	C307.863922,400.710571 308.075623,400.490784 308.137573,400.126740 
	C308.137573,400.126740 308.037994,400.083069 308.397034,400.135681 
	C309.526428,399.801605 310.296814,399.414948 311.067169,399.028290 
	C311.598633,398.861420 312.130096,398.694580 313.158722,398.290955 
	C314.186401,397.740570 314.716919,397.426941 315.247406,397.113281 
	C316.037109,396.921967 316.826843,396.730682 318.134827,396.288940 
	C319.191589,395.730652 319.730042,395.422821 320.268463,395.114990 
	C324.631073,393.373627 328.993683,391.632294 333.740082,389.864075 
z"/>
<path fill="#3FB825" opacity="1.000000" stroke="none" 
	d="
M305.752777,401.038452 
	C301.009766,403.293793 295.857819,405.518250 290.330078,407.701965 
	C295.084137,405.443329 300.213989,403.225433 305.752777,401.038452 
z"/>
<path fill="#3FB825" opacity="1.000000" stroke="none" 
	d="
M284.621826,408.980713 
	C284.997772,408.993713 284.930420,409.450348 284.860870,409.670288 
	C283.415527,410.142212 282.039703,410.394226 280.319580,410.578125 
	C281.398773,409.995911 282.822327,409.481812 284.621826,408.980713 
z"/>
<path fill="#3FB825" opacity="1.000000" stroke="none" 
	d="
M310.714539,399.009735 
	C310.296814,399.414948 309.526428,399.801605 308.420532,400.184662 
	C308.843933,399.784454 309.602905,399.387817 310.714539,399.009735 
z"/>
<path fill="#62E323" opacity="1.000000" stroke="none" 
	d="
M354.412292,379.868591 
	C354.026978,380.250275 353.325745,380.644073 352.306061,381.013794 
	C352.690552,380.620087 353.393463,380.250427 354.412292,379.868591 
z"/>
<path fill="#3FB825" opacity="1.000000" stroke="none" 
	d="
M314.912750,397.089050 
	C314.716919,397.426941 314.186401,397.740570 313.340149,398.075928 
	C313.542328,397.753387 314.060211,397.409119 314.912750,397.089050 
z"/>
<path fill="#3FB825" opacity="1.000000" stroke="none" 
	d="
M319.931824,395.087891 
	C319.730042,395.422821 319.191589,395.730652 318.334137,396.058411 
	C318.541809,395.739136 319.068481,395.399933 319.931824,395.087891 
z"/>
<path fill="#62E323" opacity="1.000000" stroke="none" 
	d="
M351.041931,381.140869 
	C350.838348,381.521362 350.280334,381.851379 349.390198,382.182434 
	C349.601227,381.819153 350.144379,381.454773 351.041931,381.140869 
z"/>
<path fill="#3FB825" opacity="1.000000" stroke="none" 
	d="
M287.181610,408.161438 
	C287.162140,408.369598 286.869659,408.572632 286.306244,408.760803 
	C286.326416,408.549438 286.617493,408.352875 287.181610,408.161438 
z"/>
<path fill="#3FB825" opacity="1.000000" stroke="none" 
	d="
M307.909180,400.151245 
	C308.075623,400.490784 307.863922,400.710571 307.261108,400.783295 
	C307.157806,400.488983 307.378143,400.287384 307.909180,400.151245 
z"/>
<path fill="#3FB825" opacity="1.000000" stroke="none" 
	d="
M222.513199,294.843140 
	C223.184723,295.580933 223.555954,296.446350 223.944290,297.665161 
	C222.267838,297.639862 219.883484,297.657440 222.513199,294.843140 
z"/>
<path fill="#3FB825" opacity="1.000000" stroke="none" 
	d="
M290.072571,416.897003 
	C292.170410,415.876129 294.707733,414.904938 297.620331,413.920807 
	C295.501068,414.920807 293.006561,415.933746 290.072571,416.897003 
z"/>
<path fill="#3FB825" opacity="1.000000" stroke="none" 
	d="
M298.991364,413.867126 
	C300.093445,413.146423 301.636383,412.478241 303.539490,411.777771 
	C302.410492,412.470245 300.921356,413.194977 298.991364,413.867126 
z"/>
<path fill="#62E323" opacity="1.000000" stroke="none" 
	d="
M336.951782,397.839966 
	C337.772430,397.117218 339.013489,396.462463 340.610168,395.796173 
	C339.767944,396.492401 338.570099,397.200195 336.951782,397.839966 
z"/>
<path fill="#3FB825" opacity="1.000000" stroke="none" 
	d="
M306.067627,410.992249 
	C306.574829,410.492004 307.358765,410.111481 308.474945,409.746674 
	C307.986298,410.212250 307.165344,410.662109 306.067627,410.992249 
z"/>
<path fill="#3FB825" opacity="1.000000" stroke="none" 
	d="
M311.231354,408.919067 
	C311.409973,408.575897 311.905273,408.250702 312.712463,407.923859 
	C312.532288,408.260468 312.040161,408.598755 311.231354,408.919067 
z"/>
<path fill="#3FB825" opacity="1.000000" stroke="none" 
	d="
M309.194550,409.841492 
	C309.361877,409.477905 309.843231,409.164886 310.632690,408.862335 
	C310.463409,409.212555 309.985962,409.552307 309.194550,409.841492 
z"/>
<path fill="#3FB825" opacity="1.000000" stroke="none" 
	d="
M313.943298,407.848236 
	C314.133057,407.472931 314.691467,407.131073 315.575806,406.721527 
	C315.371857,407.063110 314.841919,407.472382 313.943298,407.848236 
z"/>
<path fill="#43CB16" opacity="1.000000" stroke="none" 
	d="
M273.008362,421.830811 
	C273.029053,421.396057 273.347382,421.258331 273.517151,421.266418 
	C274.782379,422.111847 275.877777,422.949188 276.973206,423.786560 
	C276.441559,424.270447 275.909882,424.754333 275.378235,425.238220 
	C274.581390,424.247345 273.784515,423.256470 273.008362,421.830811 
z"/>
<path fill="#25A80E" opacity="1.000000" stroke="none" 
	d="
M233.057526,401.864441 
	C234.422592,401.816742 235.940216,402.111115 237.758270,402.639709 
	C236.442505,402.651489 234.826279,402.429016 233.057526,401.864441 
z"/>
<path fill="#43CB16" opacity="1.000000" stroke="none" 
	d="
M245.199982,404.253174 
	C246.073029,403.995209 247.137299,403.995422 248.568649,404.159546 
	C247.754227,404.386108 246.572693,404.448730 245.199982,404.253174 
z"/>
<path fill="#25A80E" opacity="1.000000" stroke="none" 
	d="
M240.154449,403.340271 
	C240.324707,403.247894 240.623627,403.351654 241.017944,403.697876 
	C240.790100,403.901245 240.513351,403.766571 240.154449,403.340271 
z"/>
<path fill="#BFF746" opacity="1.000000" stroke="none" 
	d="
M401.828674,375.821777 
	C401.393982,376.299103 400.807068,376.570740 399.893799,376.702148 
	C400.270416,376.246674 400.973450,375.931396 401.828674,375.821777 
z"/>
<path fill="#2ABF04" opacity="1.000000" stroke="none" 
	d="
M264.305298,278.527710 
	C263.549072,278.533295 263.012451,278.327911 262.475800,278.122528 
	C262.610779,277.848175 262.745789,277.573792 262.880768,277.299438 
	C263.428772,277.638550 263.976807,277.977661 264.305298,278.527710 
z"/>
</svg>